{"glyphs":{"0":{"ha":875,"x_min":0,"x_max":0,"o":"m 438 1025 b 69 510 175 1025 69 772 b 438 -4 69 247 175 -4 b 806 510 700 -4 806 247 b 438 1025 806 772 700 1025 z m 438 135 b 208 510 240 135 208 354 b 438 886 208 665 240 886 b 667 510 635 886 667 665 b 438 135 667 354 635 135 z "},"1":{"ha":875,"x_min":0,"x_max":0,"o":"m 508 1021 l 413 1021 l 83 693 l 175 601 l 369 789 l 369 139 l 69 139 l 69 0 l 806 0 l 806 139 l 508 139 z "},"2":{"ha":875,"x_min":0,"x_max":0,"o":"m 329 139 b 782 693 519 265 782 435 b 435 1025 782 850 671 1025 b 90 710 242 1025 90 879 l 229 710 b 435 886 229 808 317 886 b 643 693 600 886 643 754 b 69 139 643 453 282 275 l 69 0 l 806 0 l 806 139 z "},"3":{"ha":875,"x_min":0,"x_max":0,"o":"m 69 304 b 439 -4 83 126 231 -4 b 806 335 658 -4 806 142 b 536 661 806 501 692 625 l 771 882 l 771 1021 l 93 1021 l 93 882 l 588 882 l 354 661 l 354 532 l 446 532 b 667 335 547 532 667 465 b 439 135 667 204 554 135 b 208 304 332 135 224 193 z "},"4":{"ha":875,"x_min":0,"x_max":0,"o":"m 243 388 l 606 1021 l 446 1021 l 69 388 l 69 249 l 599 249 l 599 0 l 738 0 l 738 249 l 806 249 l 806 388 l 738 388 l 738 681 l 599 681 l 599 388 z "},"5":{"ha":875,"x_min":0,"x_max":0,"o":"m 238 456 b 439 532 282 506 368 532 b 667 335 554 532 667 465 b 439 135 667 204 554 135 b 208 304 332 135 224 193 l 69 304 b 439 -4 83 126 231 -4 b 806 335 658 -4 806 142 b 439 671 806 528 658 671 b 251 617 368 671 306 651 l 275 882 l 738 882 l 738 1021 l 147 1021 l 104 483 z "},"6":{"ha":875,"x_min":0,"x_max":0,"o":"m 774 785 b 457 1025 746 907 631 1025 b 69 510 194 1025 69 772 b 438 -4 69 219 175 -4 b 806 357 700 -4 806 192 b 438 706 806 522 700 706 b 211 568 342 706 247 633 b 457 886 224 736 294 886 b 628 785 556 886 608 832 z m 438 135 b 213 385 278 135 226 276 b 438 567 228 440 304 567 b 667 357 635 567 667 415 b 438 135 667 299 635 135 z "},"7":{"ha":875,"x_min":0,"x_max":0,"o":"m 806 882 l 806 1021 l 69 1021 l 69 882 l 653 882 l 278 0 l 431 0 z "},"8":{"ha":875,"x_min":0,"x_max":0,"o":"m 139 754 b 204 582 139 681 164 624 b 69 329 121 531 69 446 b 438 -4 69 122 231 -4 b 806 329 644 -4 806 122 b 665 579 806 446 747 529 b 736 754 706 619 736 682 b 438 1025 736 922 606 1025 b 139 754 269 1025 139 922 z m 367 504 b 438 499 389 500 413 499 b 667 329 579 499 667 429 b 438 135 667 229 579 135 b 208 329 296 135 208 229 b 367 504 208 410 267 482 z m 597 754 b 519 632 597 701 567 651 b 278 754 394 644 278 633 b 438 886 278 836 347 886 b 597 754 528 886 597 836 z "},"9":{"ha":875,"x_min":0,"x_max":0,"o":"m 101 236 b 418 -4 129 114 244 -4 b 806 511 681 -4 806 249 b 438 1025 806 801 700 1025 b 69 664 175 1025 69 829 b 438 315 69 499 175 315 b 664 453 533 315 628 388 b 418 135 651 285 581 135 b 247 236 319 135 267 189 z m 438 886 b 663 636 597 886 649 744 b 438 454 647 581 571 454 b 208 664 240 454 208 606 b 438 886 208 722 240 886 z "},"p":{"ha":857,"x_min":0,"x_max":0,"o":"m 447 782 b 197 694 375 782 271 744 l 181 778 l 69 778 l 69 -301 l 208 -301 l 208 49 b 406 -4 278 14 351 -4 b 803 389 639 -4 803 172 b 447 782 803 606 639 782 z m 419 643 b 664 389 561 643 664 528 b 419 135 664 247 560 135 b 208 199 342 135 278 154 l 208 567 b 419 643 278 614 343 642 z "},"I":{"ha":333,"x_min":0,"x_max":0,"o":"m 236 1021 l 97 1021 l 97 0 l 236 0 z "},"T":{"ha":1000,"x_min":0,"x_max":0,"o":"m 569 896 l 931 896 l 931 1021 l 69 1021 l 69 896 l 431 896 l 431 0 l 569 0 z "}," ":{"ha":417,"x_min":0,"x_max":0,"o":""},"E":{"ha":944,"x_min":0,"x_max":0,"o":"m 222 118 l 222 469 l 708 469 l 708 581 l 222 581 l 222 910 l 819 910 l 819 1021 l 83 1021 l 83 0 l 861 0 l 861 118 z "},"L":{"ha":917,"x_min":0,"x_max":0,"o":"m 222 125 l 222 1021 l 83 1021 l 83 0 l 833 0 l 833 125 z "},"A":{"ha":1111,"x_min":0,"x_max":0,"o":"m 306 279 l 806 279 l 889 0 l 1028 0 l 722 1021 l 389 1021 l 83 0 l 222 0 z m 490 896 l 621 896 l 768 404 l 343 404 z "},"F":{"ha":900,"x_min":0,"x_max":0,"o":"m 83 1021 l 83 0 l 222 0 l 222 463 l 708 463 l 708 594 l 222 594 l 222 889 l 833 889 l 833 1021 z "},"V":{"ha":1111,"x_min":0,"x_max":0,"o":"m 222 1021 l 83 1021 l 389 0 l 722 0 l 1028 1021 l 889 1021 l 621 125 l 490 125 z "},"K":{"ha":1047,"x_min":0,"x_max":0,"o":"m 964 135 l 908 135 b 850 189 886 135 865 154 l 721 469 b 658 538 708 497 678 526 b 693 575 669 543 685 558 l 808 828 b 867 882 824 863 844 882 l 908 882 l 908 1007 l 867 1021 b 686 896 792 1021 724 976 l 568 643 b 499 588 554 608 526 588 l 222 588 l 222 1021 l 83 1021 l 83 0 l 222 0 l 222 463 l 524 463 b 596 401 556 463 582 436 l 728 121 b 908 -4 765 40 833 -4 l 964 10 z "},"N":{"ha":1022,"x_min":0,"x_max":0,"o":"m 800 118 l 768 118 l 344 1021 l 83 1021 l 83 0 l 222 0 l 222 903 l 254 903 l 678 0 l 939 0 l 939 1021 l 800 1021 z "},"M":{"ha":1171,"x_min":0,"x_max":0,"o":"m 592 493 l 578 493 l 335 1021 l 83 1021 l 83 0 l 222 0 l 222 903 l 235 903 l 479 375 l 692 375 l 935 903 l 949 903 l 949 0 l 1088 0 l 1088 1021 l 836 1021 z "},"O":{"ha":1204,"x_min":0,"x_max":0,"o":"m 601 886 b 992 511 789 886 992 739 b 601 135 992 321 826 135 b 213 511 410 135 213 288 b 601 886 213 701 379 886 z m 601 1025 b 74 511 318 1025 74 794 b 601 -4 74 226 318 -4 b 1131 511 886 -4 1131 226 b 601 1025 1131 794 886 1025 z "},"P":{"ha":978,"x_min":0,"x_max":0,"o":"m 83 0 l 222 0 l 222 313 l 540 313 b 894 667 736 313 894 472 b 540 1021 894 863 736 1021 l 83 1021 z m 540 889 b 756 667 656 889 756 783 b 540 444 756 551 654 444 l 222 444 l 222 889 z "},"B":{"ha":971,"x_min":0,"x_max":0,"o":"m 83 1021 l 83 0 l 599 0 b 890 292 760 0 890 131 b 742 538 890 394 822 504 b 849 743 799 569 849 661 b 572 1021 849 897 726 1021 z m 222 125 l 222 463 l 599 463 b 751 292 683 463 751 376 b 599 125 751 207 683 125 z m 222 588 l 222 896 l 572 896 b 710 743 649 896 710 821 b 572 588 710 668 649 589 z "},"S":{"ha":1054,"x_min":0,"x_max":0,"o":"m 536 888 b 783 842 618 888 711 875 l 800 758 l 922 758 l 922 926 b 536 1026 811 996 658 1026 b 113 746 365 1026 113 944 b 557 469 113 515 351 469 b 826 307 713 469 826 431 b 526 135 826 222 713 135 b 156 278 369 135 246 189 l 74 157 b 528 -4 188 57 336 -4 b 981 307 744 -4 981 115 b 550 613 981 553 775 613 b 267 746 397 613 267 639 b 536 888 267 824 397 888 z "},"C":{"ha":1075,"x_min":0,"x_max":0,"o":"m 826 758 l 949 758 l 949 926 b 601 1026 838 996 724 1026 b 74 511 318 1026 74 796 b 601 -4 74 226 318 -4 b 1001 176 758 -4 903 67 l 903 275 b 601 135 833 192 726 135 b 213 511 410 135 213 288 b 601 888 213 735 410 888 b 810 847 679 888 750 876 z "},"D":{"ha":1046,"x_min":0,"x_max":0,"o":"m 443 0 b 972 511 728 0 972 226 b 443 1021 972 794 728 1021 l 83 1021 l 83 0 z m 222 121 l 222 900 l 443 900 b 833 511 631 900 833 739 b 443 121 833 321 668 121 z "},"ƒ":{"ha":617,"x_min":0,"x_max":0,"o":"m 532 638 l 364 638 l 392 768 b 493 901 404 825 439 901 l 588 901 l 608 999 l 519 1026 b 253 768 364 1026 282 904 l 225 638 l 86 638 l 60 513 l 199 513 l 25 -306 l 164 -306 l 338 513 l 506 513 z "},"U":{"ha":1072,"x_min":0,"x_max":0,"o":"m 222 1021 l 83 1021 l 83 460 b 536 -4 83 143 306 -4 b 989 460 767 -4 989 143 l 989 1021 l 850 1021 l 850 460 b 535 135 850 250 721 135 b 222 460 350 135 222 250 z "},"W":{"ha":1565,"x_min":0,"x_max":0,"o":"m 639 882 l 458 139 l 444 139 l 181 1021 l 42 1021 l 347 0 l 556 0 l 736 743 l 750 743 l 931 0 l 1139 0 l 1444 1021 l 1306 1021 l 1042 139 l 1028 139 l 847 882 z "},"R":{"ha":978,"x_min":0,"x_max":0,"o":"m 881 135 l 783 135 b 725 189 761 135 740 154 l 660 333 b 894 667 796 382 894 514 b 540 1021 894 863 736 1021 l 83 1021 l 83 0 l 222 0 l 222 313 l 481 313 b 539 257 503 311 525 292 l 603 121 b 783 -4 640 40 708 -4 l 881 10 z m 540 889 b 756 667 656 889 756 783 b 540 444 756 551 654 444 l 222 444 l 222 889 z "},"G":{"ha":1071,"x_min":0,"x_max":0,"o":"m 199 511 b 588 888 199 735 396 888 b 796 847 665 888 736 876 l 813 758 l 935 758 l 935 926 b 588 1026 824 996 710 1026 b 60 511 304 1026 60 796 b 588 -4 60 226 304 -4 b 988 176 744 -4 889 67 l 988 588 l 515 588 l 515 463 l 849 463 l 849 233 b 588 135 781 174 690 135 b 199 511 396 135 199 288 z "},"J":{"ha":974,"x_min":0,"x_max":0,"o":"m 224 456 l 83 456 l 83 344 b 488 -4 83 157 233 -4 b 890 428 743 -4 890 157 l 890 1021 l 751 1021 l 751 428 b 488 135 751 218 651 135 b 224 344 324 135 224 218 z "},"Z":{"ha":917,"x_min":0,"x_max":0,"o":"m 69 0 l 847 0 l 847 125 l 194 125 l 194 151 l 847 826 l 847 1021 l 69 1021 l 69 896 l 722 896 l 722 868 l 69 193 z "},"Q":{"ha":1204,"x_min":0,"x_max":0,"o":"m 1117 -285 l 1117 -160 l 1072 -160 b 818 42 946 -160 910 -43 b 1131 511 1000 124 1131 303 b 601 1025 1131 794 886 1025 b 74 511 318 1025 74 794 b 586 -4 74 226 310 -4 b 778 -115 676 -4 731 -62 b 1072 -299 856 -201 922 -299 z m 601 886 b 992 511 789 886 992 739 b 601 135 992 321 826 135 b 213 511 410 135 213 288 b 601 886 213 701 379 886 z "},"X":{"ha":972,"x_min":0,"x_max":0,"o":"m 779 0 l 925 0 l 615 539 l 897 1021 l 751 1021 l 496 588 l 475 588 l 221 1021 l 75 1021 l 356 539 l 47 0 l 193 0 l 461 463 l 511 463 z "},"Y":{"ha":1117,"x_min":0,"x_max":0,"o":"m 632 532 l 485 532 l 213 1021 l 74 1021 l 417 393 l 489 393 l 489 0 l 628 0 l 628 393 l 700 393 l 1043 1021 l 904 1021 z "},"Я":{"ha":992,"x_min":0,"x_max":0,"o":"m 97 10 l 194 -4 b 375 121 269 -4 338 40 l 439 257 b 497 313 453 292 475 311 l 769 313 l 769 0 l 908 0 l 908 1021 l 438 1021 b 83 667 242 1021 83 863 b 318 333 83 514 182 382 l 253 189 b 194 135 238 154 217 135 l 97 135 z m 769 889 l 769 444 l 438 444 b 222 667 324 444 222 551 b 438 889 222 783 322 889 z "},"М":{"ha":1213,"x_min":0,"x_max":0,"o":"m 592 493 l 578 493 l 335 1021 l 83 1021 l 83 0 l 222 0 l 222 903 l 235 903 l 479 375 l 692 375 l 935 903 l 949 903 l 949 0 l 1088 0 l 1088 1021 l 836 1021 z "},"a":{"ha":844,"x_min":0,"x_max":0,"o":"m 69 247 b 333 -4 69 108 168 -4 b 642 115 474 -4 565 54 l 664 0 l 775 0 l 775 465 b 444 782 775 682 636 782 b 138 696 308 782 232 750 l 138 560 l 249 560 l 257 615 b 444 653 313 644 360 653 b 636 492 546 653 636 597 l 636 443 b 333 499 560 481 471 499 b 69 247 168 499 69 386 z m 204 247 b 347 375 204 311 242 375 b 636 319 457 375 563 356 l 636 251 b 361 119 561 179 471 119 b 204 247 256 119 204 183 z "},"o":{"ha":915,"x_min":0,"x_max":0,"o":"m 458 782 b 54 390 242 782 54 606 b 458 -4 54 172 242 -4 b 861 390 674 -4 861 172 b 458 782 861 606 674 782 z m 458 643 b 722 390 600 643 722 529 b 458 135 722 249 600 135 b 193 390 317 135 193 249 b 458 643 193 529 317 643 z "},"n":{"ha":844,"x_min":0,"x_max":0,"o":"m 208 0 l 208 526 b 486 650 303 601 389 650 b 636 494 576 650 636 576 l 636 0 l 775 0 l 775 486 b 504 782 775 685 650 782 b 203 660 414 782 290 726 l 181 778 l 69 778 l 69 0 z "},"e":{"ha":872,"x_min":0,"x_max":0,"o":"m 444 131 b 197 340 322 131 222 221 l 815 340 b 818 390 817 350 818 374 b 442 782 818 613 650 782 b 54 390 225 782 54 606 b 444 -4 54 168 228 -4 b 754 121 644 -4 738 100 l 669 228 b 444 131 646 200 578 131 z m 442 643 b 667 469 556 643 650 563 l 203 469 b 442 643 231 569 325 643 z "},"l":{"ha":278,"x_min":0,"x_max":0,"o":"m 208 1088 l 69 1060 l 69 0 l 208 0 z "},"z":{"ha":817,"x_min":0,"x_max":0,"o":"m 69 0 l 747 0 l 747 139 l 208 139 l 208 158 l 747 575 l 747 778 l 69 778 l 69 653 l 608 653 l 608 626 l 69 208 z "},"i":{"ha":333,"x_min":0,"x_max":0,"o":"m 236 778 l 97 778 l 97 0 l 236 0 z m 79 974 b 167 894 79 929 118 894 b 256 974 215 894 256 929 b 167 1054 256 1018 215 1054 b 79 974 118 1054 79 1018 z "},"k":{"ha":851,"x_min":0,"x_max":0,"o":"m 415 340 b 471 286 438 338 456 318 l 547 121 b 728 -4 585 40 651 -4 l 782 10 l 782 135 l 728 135 b 669 189 706 135 685 154 l 593 354 b 542 406 583 374 554 401 b 596 463 554 413 588 440 l 643 585 b 701 639 657 619 679 639 l 756 639 l 756 764 l 701 778 b 521 653 626 778 557 733 l 474 531 b 418 469 461 497 438 472 l 208 469 l 208 1088 l 69 1088 l 69 0 l 208 0 l 208 340 z "},"к":{"ha":879,"x_min":0,"x_max":0,"o":"m 443 340 b 499 286 465 338 483 318 l 575 121 b 756 -4 613 40 679 -4 l 810 10 l 810 135 l 756 135 b 697 189 733 135 713 154 l 621 354 b 569 406 611 374 582 401 b 624 463 582 413 615 440 l 671 585 b 729 639 685 619 707 639 l 783 639 l 783 764 l 729 778 b 549 653 654 778 585 733 l 501 531 b 446 469 489 497 465 472 l 208 469 l 208 778 l 69 778 l 69 0 l 208 0 l 208 340 z "},"b":{"ha":857,"x_min":0,"x_max":0,"o":"m 419 -4 b 803 389 639 -4 803 172 b 419 782 803 606 639 782 b 208 718 349 782 274 757 l 208 1079 l 69 1079 l 69 0 l 181 0 l 196 78 b 419 -4 261 31 342 -4 z m 419 135 b 208 211 343 135 278 163 l 208 578 b 419 643 278 622 342 643 b 664 389 560 643 664 531 b 419 135 664 250 561 135 z "},"d":{"ha":843,"x_min":0,"x_max":0,"o":"m 424 -4 b 646 78 500 -4 581 31 l 663 0 l 774 0 l 774 1088 l 635 1088 l 635 718 b 424 782 568 757 494 782 b 40 389 204 782 40 606 b 424 -4 40 172 204 -4 z m 424 135 b 179 389 282 135 179 250 b 424 643 179 531 283 643 b 635 579 500 643 564 624 l 635 211 b 424 135 564 163 499 135 z "},"h":{"ha":844,"x_min":0,"x_max":0,"o":"m 486 650 b 636 494 583 650 636 576 l 636 0 l 775 0 l 775 486 b 476 782 775 685 650 782 b 208 664 388 782 294 729 l 208 1088 l 69 1088 l 69 0 l 208 0 l 208 526 b 486 650 303 601 389 650 z "},"c":{"ha":839,"x_min":0,"x_max":0,"o":"m 451 643 b 619 610 525 643 583 625 l 625 557 l 740 557 l 740 701 b 451 782 736 704 628 782 b 54 390 235 782 54 619 b 451 -4 54 158 235 -4 b 785 118 663 -4 778 111 l 697 228 b 451 135 697 231 626 135 b 193 390 310 135 193 235 b 451 643 193 543 310 643 z "},"q":{"ha":857,"x_min":0,"x_max":0,"o":"m 438 782 b 54 389 218 782 54 606 b 438 -4 54 172 218 -4 b 649 49 506 -4 578 14 l 649 -301 l 788 -301 l 788 778 l 676 778 l 661 704 b 438 782 588 750 510 782 z m 438 643 b 649 578 513 642 579 622 l 649 199 b 438 135 578 154 514 135 b 193 389 297 135 193 247 b 438 643 193 528 296 643 z "},"r":{"ha":753,"x_min":0,"x_max":0,"o":"m 208 0 l 208 526 b 472 653 297 601 375 653 b 558 635 519 653 549 642 l 568 557 l 683 557 l 683 735 b 472 782 653 753 583 782 b 201 664 383 782 281 728 l 181 778 l 69 778 l 69 0 z "},"m":{"ha":1300,"x_min":0,"x_max":0,"o":"m 208 0 l 208 549 b 444 650 288 611 357 650 b 581 494 542 650 581 576 l 581 0 l 719 0 l 719 486 b 715 546 719 507 718 526 b 956 650 797 610 867 650 b 1092 494 1053 650 1092 576 l 1092 0 l 1231 0 l 1231 486 b 946 782 1231 685 1119 782 b 681 657 854 782 765 725 b 435 782 633 740 547 782 b 199 681 354 782 275 738 l 181 778 l 69 778 l 69 0 z "},"u":{"ha":872,"x_min":0,"x_max":0,"o":"m 208 778 l 69 778 l 69 292 b 383 -4 69 117 178 -4 b 667 126 476 -4 576 57 l 692 0 l 803 0 l 803 778 l 664 778 l 664 263 b 383 128 565 181 483 128 b 208 292 256 128 208 215 z "},"t":{"ha":571,"x_min":0,"x_max":0,"o":"m 488 10 l 488 128 l 389 128 b 306 250 344 128 306 167 l 306 653 l 488 653 l 488 778 l 306 778 l 306 976 l 194 976 l 167 778 l 56 778 l 56 653 l 167 653 l 167 250 b 389 -4 167 103 225 -4 z "},"j":{"ha":458,"x_min":0,"x_max":0,"o":"m 50 -287 l 153 -301 b 389 -47 317 -301 389 -194 l 389 778 l 250 778 l 250 -47 b 153 -169 250 -131 197 -169 l 50 -169 z m 232 974 b 319 894 232 929 271 894 b 408 974 368 894 408 929 b 319 1054 408 1018 368 1054 b 232 974 271 1054 232 1018 z "},"g":{"ha":861,"x_min":0,"x_max":0,"o":"m 431 782 b 101 517 215 782 101 663 b 219 300 101 428 142 349 b 171 204 190 274 171 247 b 208 118 171 172 185 143 b 32 -79 85 82 32 11 b 431 -306 32 -214 146 -306 b 829 -79 717 -306 829 -214 b 510 142 829 38 738 126 b 303 204 358 151 303 142 b 328 258 303 224 310 243 b 431 249 360 251 393 249 b 760 517 647 249 760 368 b 688 693 760 585 735 646 b 779 732 719 704 750 718 l 779 871 l 668 871 l 658 814 b 531 772 619 794 581 781 b 431 782 500 778 467 782 z m 431 653 b 628 517 560 653 628 590 b 431 378 628 442 560 378 b 233 517 301 378 233 442 b 431 653 233 590 301 653 z m 431 15 b 697 -79 615 15 697 -19 b 431 -176 697 -140 615 -176 b 164 -79 246 -176 164 -140 b 431 15 164 -19 246 15 z "},"v":{"ha":826,"x_min":0,"x_max":0,"o":"m 781 778 l 642 778 l 450 139 l 376 139 l 185 778 l 46 778 l 278 0 l 549 0 z "},"w":{"ha":1335,"x_min":0,"x_max":0,"o":"m 278 0 l 504 0 l 653 500 l 682 500 l 831 0 l 1057 0 l 1289 778 l 1150 778 l 958 139 l 929 139 l 779 639 l 556 639 l 406 139 l 376 139 l 185 778 l 46 778 z "},"y":{"ha":840,"x_min":0,"x_max":0,"o":"m 278 0 l 421 0 l 389 -110 b 329 -162 382 -144 351 -162 l 247 -162 l 247 -287 l 329 -301 b 510 -176 404 -301 486 -257 l 794 778 l 656 778 l 464 139 l 376 139 l 185 778 l 46 778 z "},"x":{"ha":775,"x_min":0,"x_max":0,"o":"m 265 408 l 32 0 l 178 0 l 375 340 l 403 340 l 597 0 l 743 0 l 511 408 l 726 778 l 581 778 l 399 469 l 378 469 l 196 778 l 50 778 z "},"f":{"ha":507,"x_min":0,"x_max":0,"o":"m 474 778 l 306 778 l 306 829 b 379 963 306 886 325 963 l 474 963 l 474 1060 l 379 1088 b 167 829 224 1088 167 965 l 167 778 l 28 778 l 28 651 l 167 651 l 167 0 l 306 0 l 306 651 l 474 651 z "},"s":{"ha":846,"x_min":0,"x_max":0,"o":"m 424 -4 b 785 240 644 -4 785 94 b 424 469 785 410 649 469 b 226 557 265 469 226 508 b 424 656 226 611 300 656 b 606 619 518 656 564 642 l 626 564 l 733 564 l 733 701 b 424 782 729 704 600 782 b 85 557 228 782 85 682 b 424 333 85 415 179 333 b 642 240 615 333 642 292 b 424 121 642 156 533 121 b 129 217 260 121 154 199 l 56 118 b 424 -4 63 113 213 -4 z "},"H":{"ha":1028,"x_min":0,"x_max":0,"o":"m 222 588 l 222 1021 l 83 1021 l 83 0 l 222 0 l 222 463 l 806 463 l 806 0 l 944 0 l 944 1021 l 806 1021 l 806 588 z "},"А":{"ha":1111,"x_min":0,"x_max":0,"o":"m 306 279 l 806 279 l 889 0 l 1028 0 l 722 1021 l 389 1021 l 83 0 l 222 0 z m 490 896 l 621 896 l 768 404 l 343 404 z "},"В":{"ha":974,"x_min":0,"x_max":0,"o":"m 83 1021 l 83 0 l 599 0 b 890 292 760 0 890 131 b 742 538 890 394 822 504 b 849 743 799 569 849 661 b 572 1021 849 897 726 1021 z m 222 125 l 222 463 l 599 463 b 751 292 683 463 751 376 b 599 125 751 207 683 125 z m 222 588 l 222 896 l 572 896 b 710 743 649 896 710 821 b 572 588 710 668 649 589 z "},"С":{"ha":1075,"x_min":0,"x_max":0,"o":"m 826 758 l 949 758 l 949 926 b 601 1026 838 996 724 1026 b 74 511 318 1026 74 796 b 601 -4 74 226 318 -4 b 1001 176 758 -4 903 67 l 903 275 b 601 135 833 192 726 135 b 213 511 410 135 213 288 b 601 888 213 735 410 888 b 810 847 679 888 750 876 z "},"Е":{"ha":944,"x_min":0,"x_max":0,"o":"m 222 118 l 222 469 l 708 469 l 708 581 l 222 581 l 222 910 l 819 910 l 819 1021 l 83 1021 l 83 0 l 861 0 l 861 118 z "},"с":{"ha":807,"x_min":0,"x_max":0,"o":"m 438 643 b 606 610 511 643 569 625 l 625 564 l 726 564 l 726 701 b 438 782 722 704 614 782 b 40 390 221 782 40 619 b 438 -4 40 158 221 -4 b 771 118 649 -4 764 111 l 683 228 b 438 135 683 231 613 135 b 179 390 296 135 179 235 b 438 643 179 543 296 643 z "},"р":{"ha":857,"x_min":0,"x_max":0,"o":"m 447 782 b 197 694 375 782 271 744 l 181 778 l 69 778 l 69 -301 l 208 -301 l 208 49 b 406 -4 278 14 351 -4 b 803 389 639 -4 803 172 b 447 782 803 606 639 782 z m 419 643 b 664 389 561 643 664 528 b 419 135 664 247 560 135 b 208 199 342 135 278 154 l 208 567 b 419 643 278 614 343 642 z "},"е":{"ha":882,"x_min":0,"x_max":0,"o":"m 444 131 b 197 340 322 131 222 221 l 815 340 b 818 390 817 350 818 374 b 442 782 818 613 650 782 b 54 390 225 782 54 606 b 444 -4 54 168 228 -4 b 754 121 644 -4 738 100 l 669 228 b 444 131 646 200 578 131 z m 442 643 b 667 469 556 643 650 563 l 203 469 b 442 643 231 569 325 643 z "},"а":{"ha":844,"x_min":0,"x_max":0,"o":"m 69 247 b 333 -4 69 108 168 -4 b 642 115 474 -4 565 54 l 664 0 l 775 0 l 775 465 b 444 782 775 682 636 782 b 138 696 308 782 232 750 l 138 560 l 249 560 l 257 615 b 444 653 313 644 360 653 b 636 492 546 653 636 597 l 636 443 b 333 499 560 481 471 499 b 69 247 168 499 69 386 z m 204 247 b 347 375 204 311 242 375 b 636 319 457 375 563 356 l 636 251 b 361 119 561 179 471 119 b 204 247 256 119 204 183 z "},"н":{"ha":844,"x_min":0,"x_max":0,"o":"m 208 0 l 208 340 l 636 340 l 636 0 l 775 0 l 775 778 l 636 778 l 636 469 l 208 469 l 208 778 l 69 778 l 69 0 z "},"о":{"ha":888,"x_min":0,"x_max":0,"o":"m 444 782 b 40 390 228 782 40 606 b 444 -4 40 172 228 -4 b 847 390 660 -4 847 172 b 444 782 847 606 660 782 z m 444 643 b 708 390 586 643 708 529 b 444 135 708 249 586 135 b 179 390 303 135 179 249 b 444 643 179 529 303 643 z "},"Н":{"ha":1028,"x_min":0,"x_max":0,"o":"m 222 588 l 222 1021 l 83 1021 l 83 0 l 222 0 l 222 463 l 806 463 l 806 0 l 944 0 l 944 1021 l 806 1021 l 806 588 z "},"Г":{"ha":889,"x_min":0,"x_max":0,"o":"m 83 1021 l 83 0 l 222 0 l 222 896 l 806 896 l 806 1021 z "},"и":{"ha":844,"x_min":0,"x_max":0,"o":"m 775 0 l 775 778 l 522 778 l 236 129 l 208 129 l 208 778 l 69 778 l 69 0 l 313 0 l 596 649 l 636 649 l 636 0 z "},"И":{"ha":1022,"x_min":0,"x_max":0,"o":"m 768 903 l 800 903 l 800 0 l 939 0 l 939 1021 l 678 1021 l 254 118 l 222 118 l 222 1021 l 83 1021 l 83 0 l 344 0 z "},"К":{"ha":1047,"x_min":0,"x_max":0,"o":"m 964 135 l 908 135 b 850 189 886 135 865 154 l 721 469 b 658 538 708 497 678 526 b 693 575 669 543 685 558 l 808 828 b 867 882 824 863 844 882 l 908 882 l 908 1007 l 867 1021 b 686 896 792 1021 724 976 l 568 643 b 499 588 554 608 526 588 l 222 588 l 222 1021 l 83 1021 l 83 0 l 222 0 l 222 463 l 524 463 b 596 401 556 463 582 436 l 728 121 b 908 -4 765 40 833 -4 l 964 10 z "},"Л":{"ha":1117,"x_min":0,"x_max":0,"o":"m 83 10 l 178 -4 b 383 226 290 -4 357 94 l 518 896 l 894 896 l 894 0 l 1033 0 l 1033 1021 l 281 1021 l 281 910 l 379 896 l 243 226 b 178 135 229 163 201 135 l 83 135 z "},"П":{"ha":1028,"x_min":0,"x_max":0,"o":"m 83 0 l 222 0 l 222 896 l 806 896 l 806 0 l 944 0 l 944 1021 l 83 1021 z "},"О":{"ha":1176,"x_min":0,"x_max":0,"o":"m 588 886 b 978 511 775 886 978 739 b 588 135 978 321 813 135 b 199 511 396 135 199 288 b 588 886 199 701 365 886 z m 588 1025 b 60 511 304 1025 60 794 b 588 -4 60 226 304 -4 b 1117 511 872 -4 1117 226 b 588 1025 1117 794 872 1025 z "},"Р":{"ha":978,"x_min":0,"x_max":0,"o":"m 83 0 l 222 0 l 222 313 l 540 313 b 894 667 736 313 894 472 b 540 1021 894 863 736 1021 l 83 1021 z m 540 889 b 756 667 656 889 756 783 b 540 444 756 551 654 444 l 222 444 l 222 889 z "},"Т":{"ha":1000,"x_min":0,"x_max":0,"o":"m 569 896 l 931 896 l 931 1021 l 69 1021 l 69 896 l 431 896 l 431 0 l 569 0 z "},"Х":{"ha":972,"x_min":0,"x_max":0,"o":"m 779 0 l 925 0 l 615 539 l 897 1021 l 751 1021 l 496 588 l 475 588 l 221 1021 l 75 1021 l 356 539 l 47 0 l 193 0 l 461 463 l 511 463 z "},"х":{"ha":828,"x_min":0,"x_max":0,"o":"m 265 408 l 32 0 l 178 0 l 375 340 l 403 340 l 597 0 l 743 0 l 511 408 l 726 778 l 581 778 l 399 469 l 378 469 l 196 778 l 50 778 z "},"Ю":{"ha":1546,"x_min":0,"x_max":0,"o":"m 957 1025 b 435 588 699 1025 474 835 l 208 588 l 208 1021 l 69 1021 l 69 0 l 208 0 l 208 463 l 432 463 b 957 -4 457 200 689 -4 b 1486 511 1242 -4 1486 226 b 957 1025 1486 794 1242 1025 z m 957 886 b 1347 511 1144 886 1347 739 b 957 135 1347 321 1182 135 b 568 511 765 135 568 288 b 957 886 568 701 735 886 z "},"п":{"ha":844,"x_min":0,"x_max":0,"o":"m 208 0 l 208 649 l 636 649 l 636 0 l 775 0 l 775 778 l 69 778 l 69 0 z "},"Ш":{"ha":1472,"x_min":0,"x_max":0,"o":"m 667 125 l 222 125 l 222 1021 l 83 1021 l 83 0 l 1389 0 l 1389 1021 l 1250 1021 l 1250 125 l 806 125 l 806 1021 l 667 1021 z "},"Ц":{"ha":1083,"x_min":0,"x_max":0,"o":"m 1000 -208 l 1000 125 l 903 125 l 903 1021 l 764 1021 l 764 125 l 222 125 l 222 1021 l 83 1021 l 83 0 l 861 0 l 875 -208 z "},"ц":{"ha":886,"x_min":0,"x_max":0,"o":"m 844 -194 l 844 129 l 747 129 l 747 778 l 608 778 l 608 129 l 208 129 l 208 778 l 69 778 l 69 0 l 706 0 l 719 -194 z "},"т":{"ha":833,"x_min":0,"x_max":0,"o":"m 486 0 l 486 649 l 764 649 l 764 778 l 69 778 l 69 649 l 347 649 l 347 0 z "},"я":{"ha":824,"x_min":0,"x_max":0,"o":"m 154 -4 b 314 92 225 -4 286 33 l 404 282 l 615 282 l 615 0 l 754 0 l 754 778 l 315 778 b 69 531 181 778 69 665 b 253 290 69 415 147 318 l 194 164 b 154 135 185 142 171 135 l 86 135 l 86 10 z m 208 531 b 318 639 208 590 258 639 l 615 639 l 615 421 l 315 421 b 208 531 257 421 208 469 z "},"ю":{"ha":1263,"x_min":0,"x_max":0,"o":"m 208 0 l 208 340 l 404 340 b 806 -4 429 146 606 -4 b 1208 390 1021 -4 1208 172 b 806 782 1208 606 1021 782 b 410 469 615 782 449 647 l 208 469 l 208 778 l 69 778 l 69 0 z m 806 643 b 1069 390 947 643 1069 529 b 806 135 1069 249 947 135 b 540 390 664 135 540 249 b 806 643 540 529 664 643 z "},"Щ":{"ha":1569,"x_min":0,"x_max":0,"o":"m 83 0 l 1347 0 l 1361 -208 l 1486 -208 l 1486 125 l 1389 125 l 1389 1021 l 1250 1021 l 1250 125 l 806 125 l 806 1021 l 667 1021 l 667 125 l 222 125 l 222 1021 l 83 1021 z "},"ш":{"ha":1175,"x_min":0,"x_max":0,"o":"m 511 778 l 511 129 l 208 129 l 208 778 l 69 778 l 69 0 l 1092 0 l 1092 778 l 953 778 l 953 129 l 650 129 l 650 778 z "},"щ":{"ha":1258,"x_min":0,"x_max":0,"o":"m 511 778 l 511 129 l 208 129 l 208 778 l 69 778 l 69 0 l 1050 0 l 1064 -194 l 1189 -194 l 1189 129 l 1092 129 l 1092 778 l 953 778 l 953 129 l 650 129 l 650 778 z "},"э":{"ha":821,"x_min":0,"x_max":0,"o":"m 369 782 b 81 701 193 782 85 704 l 81 564 l 189 564 l 201 610 b 369 643 238 625 293 643 b 615 469 485 643 583 576 l 203 469 l 203 340 l 624 340 b 369 135 601 214 494 135 b 124 228 194 135 124 231 l 36 118 b 369 -4 43 111 158 -4 b 767 390 586 -4 767 158 b 369 782 767 619 586 782 z "},"Э":{"ha":1032,"x_min":0,"x_max":0,"o":"m 250 588 l 250 463 l 829 463 b 444 135 804 265 622 135 b 143 275 319 135 213 192 l 44 176 b 444 -4 143 67 288 -4 b 972 511 728 -4 972 226 b 444 1026 972 796 728 1026 b 97 926 322 1026 208 996 l 97 772 l 219 772 l 236 847 b 444 888 294 876 365 888 b 825 588 613 888 786 768 z "},"Ч":{"ha":1019,"x_min":0,"x_max":0,"o":"m 83 1021 l 83 667 b 438 313 83 472 242 313 l 797 313 l 797 0 l 936 0 l 936 1021 l 797 1021 l 797 444 l 438 444 b 222 667 324 444 222 551 l 222 1021 z "},"Б":{"ha":974,"x_min":0,"x_max":0,"o":"m 83 0 l 599 0 b 890 301 760 0 890 140 b 599 601 890 463 760 601 l 222 601 l 222 896 l 808 896 l 808 1021 l 83 1021 z m 222 476 l 599 476 b 751 301 683 476 751 386 b 599 125 751 217 683 125 l 222 125 z "},"б":{"ha":915,"x_min":0,"x_max":0,"o":"m 514 740 b 208 614 390 740 286 685 b 443 836 232 717 292 797 b 743 928 586 874 675 885 l 743 1088 l 642 1088 l 622 1028 b 403 961 586 1003 510 988 b 54 390 83 881 54 626 b 458 -4 54 158 242 -4 b 861 369 674 -4 861 151 b 514 740 861 606 708 740 z m 193 471 b 486 601 265 554 371 601 b 722 369 593 601 722 529 b 458 135 722 228 600 135 b 193 392 319 135 193 250 z "},"м":{"ha":974,"x_min":0,"x_max":0,"o":"m 208 0 l 208 649 l 247 649 l 379 278 l 581 278 l 713 649 l 751 649 l 751 0 l 890 0 l 890 778 l 632 778 l 497 407 l 461 407 l 328 778 l 69 778 l 69 0 z "},"ч":{"ha":831,"x_min":0,"x_max":0,"o":"m 761 0 l 761 778 l 622 778 l 622 406 l 319 406 b 208 521 257 406 208 458 l 208 778 l 69 778 l 69 521 b 319 271 69 385 179 271 l 622 271 l 622 0 z "},"ж":{"ha":1369,"x_min":0,"x_max":0,"o":"m 933 340 b 989 286 956 338 974 318 l 1065 121 b 1246 -4 1103 40 1169 -4 l 1300 10 l 1300 135 l 1246 135 b 1188 189 1224 135 1203 154 l 1111 354 b 1060 406 1101 374 1072 401 b 1114 463 1072 413 1106 440 l 1161 585 b 1219 639 1175 619 1197 639 l 1274 639 l 1274 764 l 1219 778 b 1039 653 1144 778 1075 733 l 992 531 b 936 469 979 497 956 472 l 754 469 l 754 778 l 615 778 l 615 469 l 433 469 b 378 531 413 472 390 497 l 331 653 b 150 778 294 733 225 778 l 96 764 l 96 639 l 150 639 b 208 585 172 639 194 619 l 256 463 b 310 406 264 440 296 413 b 258 354 297 401 267 374 l 182 189 b 124 135 165 154 146 135 l 69 135 l 69 10 l 124 -4 b 304 121 199 -4 267 40 l 381 286 b 436 340 394 318 408 338 l 615 340 l 615 0 l 754 0 l 754 340 z "},"в":{"ha":838,"x_min":0,"x_max":0,"o":"m 768 236 b 653 421 768 314 711 396 b 728 557 701 446 728 513 b 504 778 728 679 628 778 l 69 778 l 69 0 l 532 0 b 768 236 663 0 768 106 z m 532 336 b 629 236 586 336 629 290 b 532 135 629 183 586 135 l 208 135 l 208 336 z m 504 643 b 589 557 550 643 589 603 b 521 471 589 510 554 474 l 208 471 l 208 643 z "},"г":{"ha":706,"x_min":0,"x_max":0,"o":"m 208 0 l 208 649 l 636 649 l 636 778 l 69 778 l 69 0 z "},"ф":{"ha":1242,"x_min":0,"x_max":0,"o":"m 551 721 b 375 782 494 774 429 782 b 54 389 183 782 54 606 b 375 -4 54 172 183 -4 b 551 44 429 -4 494 8 l 551 -301 l 690 -301 l 690 44 b 867 -4 747 8 813 -4 b 1188 389 1058 -4 1188 172 b 867 782 1188 606 1058 782 b 690 721 813 782 747 774 l 690 1088 l 551 1088 z m 839 653 b 1049 389 981 653 1049 528 b 839 125 1049 247 979 125 b 690 175 778 125 739 140 l 690 592 b 839 653 739 631 779 651 z m 403 653 b 551 592 463 651 503 631 l 551 175 b 403 125 503 140 464 125 b 193 389 263 125 193 247 b 403 653 193 528 261 653 z "},"л":{"ha":890,"x_min":0,"x_max":0,"o":"m 193 663 l 276 649 l 182 189 b 124 135 175 154 146 135 l 56 135 l 56 10 l 124 -4 b 304 121 199 -4 288 39 l 414 649 l 682 649 l 682 0 l 821 0 l 821 778 l 193 778 z "},"З":{"ha":1010,"x_min":0,"x_max":0,"o":"m 504 1026 b 118 926 382 1026 229 996 l 118 772 l 240 772 l 256 842 b 504 888 329 875 421 888 b 774 746 643 888 774 824 b 546 624 774 639 643 624 l 414 624 l 414 485 l 543 485 b 813 307 699 485 813 431 b 513 135 813 222 699 135 b 142 278 356 135 232 189 l 60 157 b 514 -4 174 57 322 -4 b 967 307 731 -4 967 115 b 778 561 967 443 857 531 b 928 746 835 574 928 653 b 504 1026 928 944 675 1026 z "},"ь":{"ha":851,"x_min":0,"x_max":0,"o":"m 69 0 l 532 0 b 782 250 669 0 782 111 b 532 497 782 388 669 497 l 208 497 l 208 778 l 69 778 z m 208 135 l 208 363 l 532 363 b 647 250 596 363 647 314 b 532 135 647 186 596 135 z "},"Д":{"ha":1181,"x_min":0,"x_max":0,"o":"m 83 125 l 83 -208 l 208 -208 l 222 0 l 958 0 l 972 -208 l 1097 -208 l 1097 125 l 1000 125 l 1000 1021 l 247 1021 l 247 910 l 346 896 l 210 226 b 131 125 196 163 156 125 z m 304 125 b 350 226 324 154 342 189 l 485 896 l 861 896 l 861 125 z "},"д":{"ha":1011,"x_min":0,"x_max":0,"o":"m 203 667 l 300 653 l 206 189 b 147 129 199 154 169 129 l 69 129 l 69 -194 l 194 -194 l 208 0 l 803 0 l 817 -194 l 942 -194 l 942 129 l 844 129 l 844 778 l 203 778 z m 329 129 l 438 653 l 706 653 l 706 129 z "},"у":{"ha":854,"x_min":0,"x_max":0,"o":"m 278 0 l 435 0 l 403 -110 b 343 -162 396 -144 365 -162 l 261 -162 l 261 -287 l 343 -301 b 524 -176 418 -301 500 -257 l 808 778 l 669 778 l 478 139 l 376 139 l 185 778 l 46 778 z "},"У":{"ha":1025,"x_min":0,"x_max":0,"o":"m 504 -4 b 685 121 579 -4 661 43 l 956 1021 l 817 1021 l 640 432 l 431 432 b 369 482 404 432 378 456 l 208 1021 l 69 1021 l 243 446 b 422 307 267 369 325 307 l 603 307 l 567 189 b 504 135 557 156 526 135 l 322 135 l 322 24 l 449 -4 z "},"Ф":{"ha":1372,"x_min":0,"x_max":0,"o":"m 756 144 l 913 144 b 1303 531 1124 144 1303 318 b 913 918 1303 747 1133 918 l 756 918 l 756 1021 l 617 1021 l 617 918 l 460 918 b 69 531 238 918 69 747 b 460 144 69 318 247 144 l 617 144 l 617 0 l 756 0 z m 206 531 b 460 789 206 671 319 789 l 617 789 l 617 274 l 460 274 b 206 531 319 274 206 390 z m 756 274 l 756 789 l 913 789 b 1167 531 1053 789 1167 671 b 913 274 1167 390 1053 274 z "},"з":{"ha":840,"x_min":0,"x_max":0,"o":"m 308 335 l 424 335 b 646 240 615 335 646 294 b 424 132 646 160 519 132 b 143 225 249 132 149 221 l 56 118 b 424 -4 63 113 213 -4 b 785 240 631 -4 785 93 b 669 407 785 318 722 383 b 756 554 708 425 756 488 b 417 782 756 679 613 782 b 107 700 240 782 111 704 l 107 564 l 222 564 l 226 606 b 417 650 267 625 333 650 b 617 554 540 650 617 604 b 431 468 617 515 603 468 l 308 468 z "},"ы":{"ha":1042,"x_min":0,"x_max":0,"o":"m 69 0 l 490 0 b 740 250 628 0 740 111 b 490 497 740 388 628 497 l 208 497 l 208 778 l 69 778 z m 833 0 l 972 0 l 972 778 l 833 778 z m 208 135 l 208 363 l 490 363 b 606 250 554 363 606 314 b 490 135 606 186 554 135 z "},"ъ":{"ha":1004,"x_min":0,"x_max":0,"o":"m 69 649 l 250 649 l 250 0 l 685 0 b 935 250 822 0 935 111 b 685 497 935 388 822 497 l 389 497 l 389 778 l 69 778 z m 389 135 l 389 363 l 685 363 b 800 250 749 363 800 314 b 685 135 800 186 749 135 z "},"Ь":{"ha":1006,"x_min":0,"x_max":0,"o":"m 83 0 l 582 0 b 922 340 778 0 922 144 b 582 681 922 535 778 681 l 222 681 l 222 1021 l 83 1021 z m 222 128 l 222 544 l 582 544 b 783 336 696 544 783 451 b 582 128 783 219 697 128 z "},"Ы":{"ha":1194,"x_min":0,"x_max":0,"o":"m 83 0 l 526 0 b 867 340 722 0 867 144 b 526 681 867 535 722 681 l 222 681 l 222 1021 l 83 1021 z m 222 128 l 222 544 l 526 544 b 728 336 640 544 728 451 b 526 128 728 219 642 128 z m 1111 1021 l 972 1021 l 972 0 l 1111 0 z "},"Ъ":{"ha":1174,"x_min":0,"x_max":0,"o":"m 83 896 l 292 896 l 292 0 l 749 0 b 1089 340 944 0 1089 144 b 749 681 1089 535 944 681 l 431 681 l 431 1021 l 83 1021 z m 431 128 l 431 544 l 749 544 b 950 336 863 544 950 451 b 749 128 950 219 864 128 z "},"Ж":{"ha":1567,"x_min":0,"x_max":0,"o":"m 357 896 b 181 1021 319 976 256 1021 l 139 1007 l 139 882 l 181 882 b 236 833 201 882 222 864 l 329 629 b 407 538 347 589 375 547 b 303 418 368 522 328 474 l 197 189 b 139 135 181 154 161 135 l 83 135 l 83 10 l 139 -4 b 319 121 214 -4 282 40 l 451 401 b 524 456 465 436 501 456 l 714 456 l 714 0 l 853 0 l 853 456 l 1043 456 b 1115 401 1065 456 1101 436 l 1247 121 b 1428 -4 1285 40 1353 -4 l 1483 10 l 1483 135 l 1428 135 b 1369 189 1406 135 1385 154 l 1264 418 b 1160 538 1239 474 1199 522 b 1238 629 1192 547 1219 589 l 1331 833 b 1386 882 1344 864 1365 882 l 1428 882 l 1428 1007 l 1386 1021 b 1210 896 1311 1021 1247 976 l 1092 643 b 1022 594 1078 608 1044 594 l 853 594 l 853 1021 l 714 1021 l 714 594 l 544 594 b 475 643 522 594 489 608 z "},"й":{"ha":844,"x_min":0,"x_max":0,"o":"m 532 1042 b 422 957 528 981 496 957 b 311 1042 349 957 315 982 l 210 1042 b 422 863 210 938 297 863 b 635 1042 547 863 635 938 z m 775 0 l 775 778 l 521 778 l 240 139 l 208 139 l 208 778 l 69 778 l 69 0 l 314 0 l 592 639 l 636 639 l 636 0 z "},"Й":{"ha":1022,"x_min":0,"x_max":0,"o":"m 635 1263 b 511 1175 631 1201 585 1175 b 386 1263 438 1175 390 1203 l 285 1263 b 511 1085 285 1158 386 1085 b 738 1263 636 1085 738 1158 z m 768 903 l 800 903 l 800 0 l 939 0 l 939 1021 l 678 1021 l 254 118 l 222 118 l 222 1021 l 83 1021 l 83 0 l 344 0 z "},".":{"ha":357,"x_min":0,"x_max":0,"o":"m 79 85 b 176 -4 79 35 122 -4 b 278 85 233 -4 278 35 b 176 175 278 135 233 175 b 79 85 122 175 79 135 z "},"—":{"ha":1472,"x_min":0,"x_max":0,"o":"m 83 528 l 83 417 l 1389 417 l 1389 528 z "},"–":{"ha":1046,"x_min":0,"x_max":0,"o":"m 83 528 l 83 417 l 963 417 l 963 528 z "},"-":{"ha":629,"x_min":0,"x_max":0,"o":"m 83 528 l 83 417 l 546 417 l 546 528 z "},"Ё":{"ha":944,"x_min":0,"x_max":0,"o":"m 224 1188 b 304 1114 224 1144 258 1114 b 386 1188 350 1114 386 1144 b 304 1263 386 1231 350 1263 b 224 1188 258 1263 224 1231 z m 529 1188 b 610 1114 529 1144 564 1114 b 692 1188 656 1114 692 1144 b 610 1263 692 1231 656 1263 b 529 1188 564 1263 529 1231 z m 222 118 l 222 469 l 708 469 l 708 581 l 222 581 l 222 910 l 819 910 l 819 1021 l 83 1021 l 83 0 l 861 0 l 861 118 z "},"ё":{"ha":882,"x_min":0,"x_max":0,"o":"m 222 950 b 303 876 222 907 257 876 b 385 950 349 876 385 907 b 303 1025 385 993 349 1025 b 222 950 257 1025 222 993 z m 514 950 b 594 876 514 907 549 876 b 676 950 640 876 676 907 b 594 1025 676 993 640 1025 b 514 950 549 1025 514 993 z m 444 131 b 197 340 322 131 222 221 l 815 340 b 818 390 817 350 818 374 b 442 782 818 613 650 782 b 54 390 225 782 54 606 b 444 -4 54 168 228 -4 b 754 121 644 -4 738 100 l 669 228 b 444 131 646 200 578 131 z m 442 643 b 667 469 556 643 650 563 l 203 469 b 442 643 231 569 325 643 z "},"!":{"ha":358,"x_min":0,"x_max":0,"o":"m 82 85 b 179 -4 82 35 125 -4 b 281 85 236 -4 281 35 b 179 175 281 135 236 175 b 82 85 125 175 82 135 z m 253 1021 l 125 1021 l 125 292 l 253 292 z "},",":{"ha":358,"x_min":0,"x_max":0,"o":"m 79 93 b 176 8 79 43 111 8 b 182 -21 181 0 182 -10 b 117 -154 182 -60 158 -112 l 153 -185 b 279 60 201 -142 279 -58 b 176 175 279 125 250 175 b 79 93 122 175 79 143 z "},"?":{"ha":728,"x_min":0,"x_max":0,"o":"m 263 85 b 360 -4 263 35 306 -4 b 461 85 417 -4 461 35 b 360 175 461 135 417 175 b 263 85 306 175 263 135 z m 422 369 b 493 460 422 397 446 438 b 689 751 621 521 689 608 b 360 1026 689 929 529 1026 b 14 831 188 1026 78 906 l 118 739 b 360 888 157 782 228 888 b 550 751 451 888 550 850 b 433 586 550 671 519 626 b 297 369 353 549 297 464 l 297 292 l 422 292 z "},"$":{"ha":1022,"x_min":0,"x_max":0,"o":"m 454 1129 l 454 1024 b 85 746 289 1008 85 924 b 454 471 85 543 269 483 l 454 136 b 128 278 318 144 208 197 l 46 157 b 454 -3 150 65 285 6 l 454 -69 l 551 -69 l 551 -1 b 953 307 753 14 953 131 b 551 611 953 542 753 606 l 551 886 b 756 842 621 883 696 869 l 772 731 l 894 731 l 894 926 b 551 1025 796 988 665 1018 l 551 1129 z m 799 307 b 551 138 799 231 706 151 l 551 469 b 799 307 694 465 799 424 z m 239 746 b 454 883 239 813 338 869 l 454 614 b 239 746 332 622 239 654 z "},"&":{"ha":1157,"x_min":0,"x_max":0,"o":"m 931 679 b 861 600 931 642 900 600 l 708 600 b 507 401 593 600 507 517 l 521 340 l 639 340 l 639 401 b 708 488 639 440 669 488 l 781 488 b 836 332 832 435 836 369 b 528 125 836 204 685 125 b 228 317 404 125 228 182 b 435 486 228 425 336 486 l 435 600 b 301 740 350 600 301 681 b 514 896 301 850 413 896 b 699 740 615 896 699 850 l 836 740 b 514 1025 836 929 689 1025 b 163 740 353 1025 163 943 b 260 554 163 642 213 589 b 89 317 174 508 89 432 b 528 -4 89 97 335 -4 b 975 332 729 -4 975 93 b 942 488 975 394 964 443 b 1069 679 1017 519 1069 592 l 1056 740 l 931 740 z "},"€":{"ha":1079,"x_min":0,"x_max":0,"o":"m 78 460 l 40 363 l 138 363 b 643 -4 206 150 411 -4 b 1043 176 800 -4 944 67 l 944 275 b 643 135 875 192 768 135 b 286 363 497 135 350 222 l 793 363 l 831 460 l 257 460 b 254 511 254 476 254 493 l 254 543 l 863 543 l 900 640 l 278 640 b 643 888 335 792 492 888 b 942 749 768 888 872 832 l 997 892 b 643 1026 903 975 778 1026 b 132 640 403 1026 193 863 l 78 640 l 40 543 l 115 543 l 115 511 b 118 460 115 493 115 476 z "},"‡":{"ha":494,"x_min":0,"x_max":0,"o":"m 303 778 l 303 1021 l 192 1021 l 192 778 l 17 778 l 17 667 l 192 667 l 192 192 l 17 192 l 17 81 l 192 81 l 192 -162 l 303 -162 l 303 81 l 479 81 l 479 192 l 303 192 l 303 667 l 479 667 l 479 778 z "},":":{"ha":357,"x_min":0,"x_max":0,"o":"m 79 85 b 176 -4 79 35 122 -4 b 278 85 233 -4 278 35 b 176 175 278 135 233 175 b 79 85 122 175 79 135 z m 79 692 b 176 603 79 642 122 603 b 278 692 233 603 278 642 b 176 782 278 742 233 782 b 79 692 122 782 79 742 z "},"/":{"ha":500,"x_min":0,"x_max":0,"o":"m 14 -93 l 125 -93 l 486 1101 l 375 1101 z "},"|":{"ha":375,"x_min":0,"x_max":0,"o":"m 139 -162 l 236 -162 l 236 1088 l 139 1088 z "},"\\":{"ha":500,"x_min":0,"x_max":0,"o":"m 125 1101 l 14 1101 l 375 -93 l 486 -93 z "},"Ø":{"ha":1204,"x_min":0,"x_max":0,"o":"m 601 1025 b 74 511 318 1025 74 794 b 242 136 74 363 139 231 l 131 0 l 242 0 l 310 83 b 601 -4 394 28 494 -4 b 1131 511 886 -4 1131 226 b 963 883 1131 657 1065 789 l 1075 1021 l 964 1021 l 894 936 b 601 1025 810 992 708 1025 z m 601 886 b 806 828 671 886 743 865 l 329 243 b 213 511 260 310 213 401 b 601 886 213 701 379 886 z m 601 135 b 399 192 531 135 460 156 l 875 776 b 992 511 944 711 992 619 b 601 135 992 321 826 135 z "},"ø":{"ha":915,"x_min":0,"x_max":0,"o":"m 458 782 b 54 390 242 782 54 606 b 189 97 54 274 107 169 l 117 0 l 228 0 l 263 46 b 458 -4 321 14 388 -4 b 861 390 674 -4 861 172 b 733 674 861 501 811 601 l 811 778 l 700 778 l 661 726 b 458 782 601 761 531 782 z m 458 643 b 578 614 500 643 542 632 l 272 208 b 193 390 224 256 193 319 b 458 643 193 529 317 643 z m 458 135 b 347 160 418 135 381 143 l 650 563 b 722 390 694 517 722 456 b 458 135 722 249 600 135 z "},"]":{"ha":396,"x_min":0,"x_max":0,"o":"m 313 -162 l 313 1060 l 76 1060 l 76 976 l 201 976 l 201 -79 l 76 -79 l 76 -162 z "},"[":{"ha":396,"x_min":0,"x_max":0,"o":"m 319 -162 l 319 -79 l 194 -79 l 194 1004 l 319 1004 l 319 1088 l 83 1088 l 83 -162 z "},";":{"ha":358,"x_min":0,"x_max":0,"o":"m 79 93 b 193 0 79 43 111 0 b 117 -154 193 -57 153 -108 l 153 -185 b 279 60 201 -142 279 -58 b 176 175 279 125 250 175 b 79 93 122 175 79 143 z m 79 692 b 176 603 79 642 122 603 b 278 692 233 603 278 642 b 176 782 278 742 233 782 b 79 692 122 782 79 742 z "},"_":{"ha":876,"x_min":0,"x_max":0,"o":"m 0 -83 l 0 -181 l 876 -181 l 876 -83 z "},"=":{"ha":628,"x_min":0,"x_max":0,"o":"m 83 639 l 83 528 l 546 528 l 546 639 z m 83 417 l 83 306 l 546 306 l 546 417 z "},"+":{"ha":629,"x_min":0,"x_max":0,"o":"m 369 417 l 546 417 l 546 528 l 369 528 l 369 703 l 258 703 l 258 528 l 83 528 l 83 417 l 258 417 l 258 240 l 369 240 z "},"#":{"ha":893,"x_min":0,"x_max":0,"o":"m 639 929 l 568 694 l 429 694 l 500 929 l 389 929 l 318 694 l 125 694 l 125 583 l 283 583 l 233 417 l 69 417 l 69 306 l 200 306 l 126 63 l 238 63 l 311 306 l 450 306 l 376 63 l 488 63 l 561 306 l 754 306 l 754 417 l 594 417 l 644 583 l 810 583 l 810 694 l 679 694 l 750 929 z m 394 583 l 533 583 l 483 417 l 344 417 z "},"•":{"ha":625,"x_min":0,"x_max":0,"o":"m 419 469 b 313 574 419 528 376 574 b 206 469 249 574 206 528 b 313 367 206 411 249 367 b 419 469 376 367 419 411 z "},"·":{"ha":333,"x_min":0,"x_max":0,"o":"m 68 460 b 165 371 68 410 111 371 b 267 460 222 371 267 410 b 165 550 267 510 222 550 b 68 460 111 550 68 510 z "},"`":{"ha":314,"x_min":0,"x_max":0,"o":"m 175 863 l 265 863 l 176 1021 l 49 1021 z "},"‘":{"ha":358,"x_min":0,"x_max":0,"o":"m 279 785 b 182 869 279 835 247 869 b 176 899 178 878 176 888 b 242 1032 176 938 200 990 l 206 1063 b 79 818 157 1019 79 936 b 182 703 79 753 108 703 b 279 785 236 703 279 735 z "},")":{"ha":386,"x_min":0,"x_max":0,"o":"m 174 449 b 11 -162 174 168 94 -10 l 78 -162 b 304 449 178 -49 304 131 b 78 1060 304 767 178 946 l 11 1060 b 174 449 94 907 174 729 z "},"(":{"ha":386,"x_min":0,"x_max":0,"o":"m 213 449 b 375 1060 213 729 292 907 l 308 1060 b 82 449 208 946 82 767 b 308 -162 82 131 208 -49 l 375 -162 b 213 449 292 -10 213 168 z "},"’":{"ha":358,"x_min":0,"x_max":0,"o":"m 79 981 b 176 896 79 931 111 896 b 182 867 181 888 182 878 b 117 733 182 828 158 775 l 153 703 b 279 947 201 746 279 829 b 176 1063 279 1013 250 1063 b 79 981 122 1063 79 1031 z "},"“":{"ha":650,"x_min":0,"x_max":0,"o":"m 279 785 b 182 869 279 835 247 869 b 176 899 178 878 176 888 b 242 1032 176 938 200 990 l 206 1063 b 79 818 157 1019 79 936 b 182 703 79 753 108 703 b 279 785 236 703 279 735 z m 571 785 b 474 869 571 835 539 869 b 468 899 469 878 468 888 b 533 1032 468 938 492 990 l 497 1063 b 371 818 449 1019 371 936 b 474 703 371 753 400 703 b 571 785 528 703 571 735 z "},"”":{"ha":650,"x_min":0,"x_max":0,"o":"m 79 981 b 176 896 79 931 111 896 b 182 867 181 888 182 878 b 117 733 182 828 158 775 l 153 703 b 279 947 201 746 279 829 b 176 1063 279 1013 250 1063 b 79 981 122 1063 79 1031 z m 371 981 b 468 896 371 931 403 896 b 474 867 472 888 474 878 b 408 733 474 828 450 775 l 444 703 b 571 947 493 746 571 829 b 468 1063 571 1013 542 1063 b 371 981 414 1063 371 1031 z "},"\"":{"ha":489,"x_min":0,"x_max":0,"o":"m 196 1021 l 97 1021 l 97 793 l 196 793 z m 392 1021 l 293 1021 l 293 793 l 392 793 z "},"'":{"ha":321,"x_min":0,"x_max":0,"o":"m 224 1063 l 97 1063 l 97 689 l 224 689 z "},"%":{"ha":950,"x_min":0,"x_max":0,"o":"m 225 1026 b 44 785 96 1026 44 914 b 225 546 44 657 96 546 b 406 785 353 546 406 657 b 225 1026 406 914 353 1026 z m 96 0 l 211 0 l 850 1021 l 735 1021 z m 225 926 b 306 785 282 926 306 861 b 225 646 306 711 282 646 b 144 785 168 646 144 711 b 225 926 144 861 168 926 z m 725 476 b 544 235 596 476 544 364 b 725 -4 544 107 596 -4 b 906 235 853 -4 906 107 b 725 476 906 364 853 476 z m 725 376 b 806 235 782 376 806 311 b 725 96 806 161 782 96 b 644 235 668 96 644 161 b 725 376 644 311 668 376 z "},"@":{"ha":1288,"x_min":0,"x_max":0,"o":"m 917 704 l 801 674 b 650 719 754 707 706 719 b 310 390 467 719 310 571 b 622 58 310 207 453 58 b 817 138 704 58 769 94 b 978 60 850 90 907 60 b 1231 421 1167 60 1231 269 b 650 972 1231 754 985 972 b 56 393 331 972 56 713 b 650 -187 56 72 331 -187 b 856 -150 718 -187 789 -174 l 856 -10 l 853 -8 b 650 -49 788 -36 719 -49 b 194 393 406 -49 194 149 b 650 833 194 636 406 833 b 1092 421 910 833 1092 676 b 978 199 1092 351 1071 199 b 919 276 933 199 919 232 l 919 701 z m 650 582 b 781 550 699 582 742 574 l 781 250 b 622 196 742 221 689 196 b 447 390 529 196 447 283 b 650 582 447 494 543 582 z "},"±":{"ha":628,"x_min":0,"x_max":0,"o":"m 369 458 l 546 458 l 546 569 l 369 569 l 369 703 l 258 703 l 258 569 l 83 569 l 83 458 l 258 458 l 258 324 l 369 324 z m 83 222 l 83 111 l 546 111 l 546 222 z "},"⁄":{"ha":339,"x_min":0,"x_max":0,"o":"m -224 0 l -76 0 l 563 1021 l 415 1021 z "},"‰":{"ha":1211,"x_min":0,"x_max":0,"o":"m 986 476 b 856 415 926 476 885 453 b 725 476 826 453 783 476 b 544 235 596 476 544 364 b 725 -4 544 107 596 -4 b 856 56 783 -4 826 18 b 986 -4 885 19 926 -4 b 1167 235 1114 -4 1167 107 b 986 476 1167 364 1114 476 z m 225 1026 b 44 785 96 1026 44 914 b 225 546 44 657 96 546 b 406 785 353 546 406 657 b 225 1026 406 914 353 1026 z m 96 0 l 211 0 l 850 1021 l 735 1021 z m 725 376 b 806 235 782 376 806 311 l 806 225 b 725 96 803 156 779 96 b 644 235 668 96 644 161 b 725 376 644 311 668 376 z m 986 376 b 1067 235 1043 376 1067 311 b 986 96 1067 161 1043 96 b 906 235 929 96 906 161 b 986 376 906 311 929 376 z m 225 926 b 306 785 282 926 306 861 b 225 646 306 711 282 646 b 144 785 168 646 144 711 b 225 926 144 861 168 926 z "},"*":{"ha":550,"x_min":0,"x_max":0,"o":"m 235 872 l 93 922 l 65 836 l 207 794 l 118 678 l 190 624 b 274 746 214 660 247 707 l 360 624 l 432 678 l 342 794 l 485 836 l 457 924 l 319 872 l 319 1021 l 235 1021 z "},"‹":{"ha":497,"x_min":0,"x_max":0,"o":"m 386 264 l 256 521 l 386 778 l 244 778 l 111 521 l 244 264 z "},"«":{"ha":789,"x_min":0,"x_max":0,"o":"m 386 264 l 256 521 l 386 778 l 244 778 l 111 521 l 244 264 z m 678 264 l 547 521 l 678 778 l 536 778 l 403 521 l 536 264 z "},"»":{"ha":789,"x_min":0,"x_max":0,"o":"m 544 264 l 678 521 l 544 778 l 403 778 l 533 521 l 403 264 z m 253 264 l 386 521 l 253 778 l 111 778 l 242 521 l 111 264 z "},"›":{"ha":497,"x_min":0,"x_max":0,"o":"m 253 264 l 386 521 l 253 778 l 111 778 l 242 521 l 111 264 z "},"÷":{"ha":629,"x_min":0,"x_max":0,"o":"m 83 521 l 83 424 l 546 424 l 546 521 z m 232 689 b 314 614 232 647 268 614 b 400 689 363 614 400 647 b 314 765 400 731 363 765 b 232 689 268 765 232 731 z m 232 254 b 314 179 232 213 268 179 b 400 254 363 179 400 213 b 314 331 400 296 363 331 b 232 254 268 331 232 296 z "},"љ":{"ha":1464,"x_min":0,"x_max":0,"o":"m 179 653 l 276 653 l 182 189 b 124 135 175 154 146 135 l 56 135 l 56 10 l 124 -4 b 304 121 199 -4 288 39 l 414 653 l 682 653 l 682 0 l 1144 0 b 1394 250 1282 0 1394 111 b 1144 497 1394 388 1282 497 l 821 497 l 821 778 l 179 778 z m 821 135 l 821 363 l 1144 363 b 1260 250 1208 363 1260 314 b 1144 135 1260 186 1208 135 z "},"<":{"ha":786,"x_min":0,"x_max":0,"o":"m 685 139 l 685 250 l 203 472 l 685 694 l 685 806 l 83 528 l 83 417 z "},">":{"ha":778,"x_min":0,"x_max":0,"o":"m 694 417 l 694 528 l 93 806 l 93 694 l 575 472 l 93 250 l 93 139 z "},"^":{"ha":711,"x_min":0,"x_max":0,"o":"m 83 572 l 203 572 l 356 881 l 508 572 l 628 572 l 419 993 l 292 993 z "},"{":{"ha":496,"x_min":0,"x_max":0,"o":"m 438 -79 b 313 43 367 -79 313 -21 l 313 278 b 219 463 313 353 276 421 b 313 649 276 506 313 572 l 313 882 b 438 1004 313 946 367 1004 l 438 1088 b 201 864 310 1088 201 990 l 201 631 b 83 508 201 567 150 508 l 83 418 b 201 296 150 418 201 358 l 201 61 b 438 -162 201 -65 310 -162 z "},"}":{"ha":496,"x_min":0,"x_max":0,"o":"m 58 -162 b 294 61 186 -162 294 -65 l 294 296 b 413 418 294 358 346 418 l 413 508 b 294 631 346 508 294 567 l 294 864 b 58 1088 294 990 186 1088 l 58 1004 b 183 882 129 1004 183 946 l 183 649 b 276 463 183 572 219 506 b 183 278 219 421 183 353 l 183 43 b 58 -79 183 -21 129 -79 z "},"‚":{"ha":358,"x_min":0,"x_max":0,"o":"m 79 93 b 176 8 79 43 111 8 b 182 -21 181 0 182 -10 b 117 -154 182 -60 158 -112 l 153 -185 b 279 60 201 -142 279 -58 b 176 175 279 125 250 175 b 79 93 122 175 79 143 z "},"„":{"ha":650,"x_min":0,"x_max":0,"o":"m 79 93 b 176 8 79 43 111 8 b 182 -21 181 0 182 -10 b 117 -154 182 -60 158 -112 l 153 -185 b 279 60 201 -142 279 -58 b 176 175 279 125 250 175 b 79 93 122 175 79 143 z m 371 93 b 468 8 371 43 403 8 b 474 -21 472 0 474 -10 b 408 -154 474 -60 450 -112 l 444 -185 b 571 60 493 -142 571 -58 b 468 175 571 125 542 175 b 371 93 414 175 371 143 z "},"…":{"ha":1071,"x_min":0,"x_max":0,"o":"m 79 85 b 176 -4 79 35 122 -4 b 278 85 233 -4 278 35 b 176 175 278 135 233 175 b 79 85 122 175 79 135 z m 436 85 b 533 -4 436 35 479 -4 b 635 85 590 -4 635 35 b 533 175 635 135 590 175 b 436 85 479 175 436 135 z m 793 85 b 890 -4 793 35 836 -4 b 992 85 947 -4 992 35 b 890 175 992 135 947 175 b 793 85 836 175 793 135 z "},"њ":{"ha":1418,"x_min":0,"x_max":0,"o":"m 636 0 l 1099 0 b 1349 250 1236 0 1349 111 b 1099 497 1349 388 1236 497 l 775 497 l 775 778 l 636 778 l 636 494 l 208 494 l 208 778 l 69 778 l 69 0 l 208 0 l 208 367 l 636 367 z m 775 135 l 775 363 l 1099 363 b 1214 250 1163 363 1214 314 b 1099 135 1214 186 1163 135 z "},"™":{"ha":1153,"x_min":0,"x_max":0,"o":"m 744 719 l 907 719 l 961 928 l 983 928 l 983 543 l 1083 543 l 1083 1021 l 890 1021 l 832 813 l 818 813 l 760 1021 l 567 1021 l 567 543 l 665 543 l 665 928 l 686 928 z m 331 543 l 331 928 l 493 928 l 493 1021 l 69 1021 l 69 928 l 232 928 l 232 543 z "},"ì":{"ha":333,"x_min":0,"x_max":0,"o":"m 236 778 l 97 778 l 97 0 l 236 0 z m 157 863 l 247 863 l 158 1021 l 31 1021 z "},"Ì":{"ha":333,"x_min":0,"x_max":0,"o":"m 236 1021 l 97 1021 l 97 0 l 236 0 z m 185 1106 l 275 1106 l 186 1264 l 58 1264 z "},"ò":{"ha":915,"x_min":0,"x_max":0,"o":"m 458 782 b 54 390 242 782 54 606 b 458 -4 54 172 242 -4 b 861 390 674 -4 861 172 b 458 782 861 606 674 782 z m 458 643 b 722 390 600 643 722 529 b 458 135 722 249 600 135 b 193 390 317 135 193 249 b 458 643 193 529 317 643 z m 442 863 l 532 863 l 443 1021 l 315 1021 z "},"Ò":{"ha":1204,"x_min":0,"x_max":0,"o":"m 601 886 b 992 511 789 886 992 739 b 601 135 992 321 826 135 b 213 511 410 135 213 288 b 601 886 213 701 379 886 z m 601 1025 b 74 511 318 1025 74 794 b 601 -4 74 226 318 -4 b 1131 511 886 -4 1131 226 b 601 1025 1131 794 886 1025 z m 615 1106 l 706 1106 l 617 1264 l 489 1264 z "},"Њ":{"ha":1728,"x_min":0,"x_max":0,"o":"m 222 671 l 222 1021 l 83 1021 l 83 0 l 222 0 l 222 546 l 806 546 l 806 0 l 1304 0 b 1644 340 1500 0 1644 144 b 1304 681 1644 535 1500 681 l 944 681 l 944 1021 l 806 1021 l 806 671 z m 944 128 l 944 544 l 1304 544 b 1506 336 1418 544 1506 451 b 1304 128 1506 219 1419 128 z "},"Љ":{"ha":1817,"x_min":0,"x_max":0,"o":"m 83 10 l 178 -4 b 383 226 290 -4 357 94 l 518 896 l 894 896 l 894 0 l 1393 0 b 1733 340 1589 0 1733 144 b 1393 681 1733 535 1589 681 l 1033 681 l 1033 1021 l 281 1021 l 281 910 l 379 896 l 243 226 b 178 135 229 163 201 135 l 83 135 z m 1033 128 l 1033 544 l 1393 544 b 1594 336 1507 544 1594 451 b 1393 128 1594 219 1508 128 z "},"°":{"ha":589,"x_min":0,"x_max":0,"o":"m 510 817 b 296 1026 510 933 425 1026 b 79 817 165 1026 79 933 b 296 610 79 700 165 610 b 510 817 425 610 510 700 z m 413 817 b 296 707 413 754 367 707 b 176 817 224 707 176 754 b 296 929 176 879 224 929 b 413 817 367 929 413 879 z "},"­":{"ha":629,"x_min":0,"x_max":0,"o":"m 83 528 l 83 417 l 546 417 l 546 528 z "},"†":{"ha":494,"x_min":0,"x_max":0,"o":"m 303 778 l 303 1021 l 192 1021 l 192 778 l 17 778 l 17 667 l 192 667 l 192 -162 l 303 -162 l 303 667 l 479 667 l 479 778 z "},"®":{"ha":1157,"x_min":0,"x_max":0,"o":"m 54 511 b 569 -4 54 226 285 -4 b 1085 511 854 -4 1085 226 b 569 1026 1085 796 854 1026 b 54 511 285 1026 54 796 z m 164 511 b 569 917 164 736 344 917 b 975 511 794 917 975 736 b 569 106 975 286 794 106 b 164 511 344 106 164 286 z m 782 238 l 776 329 l 724 329 b 692 358 713 329 700 340 l 668 413 b 803 599 743 440 803 514 b 608 793 803 706 717 793 l 357 793 l 357 231 l 457 231 l 457 403 l 551 403 b 583 371 564 401 574 390 l 621 299 b 719 229 644 254 678 229 z m 585 697 b 701 599 649 697 701 663 b 585 500 701 535 649 500 l 457 500 l 457 697 z "},"©":{"ha":1157,"x_min":0,"x_max":0,"o":"m 54 511 b 569 -4 54 226 285 -4 b 1085 511 854 -4 1085 226 b 569 1026 1085 796 854 1026 b 54 511 285 1026 54 796 z m 164 511 b 569 917 164 736 344 917 b 975 511 794 917 975 736 b 569 106 975 286 794 106 b 164 511 344 106 164 286 z m 569 694 b 690 669 622 694 664 681 l 693 632 l 776 632 l 776 736 b 569 793 771 740 696 793 b 283 513 413 793 283 676 b 569 229 283 346 413 229 b 799 322 711 229 793 317 l 736 401 b 569 328 731 397 676 328 b 383 513 467 328 383 400 b 569 694 383 622 467 694 z "},"¢":{"ha":807,"x_min":0,"x_max":0,"o":"m 375 776 b 40 390 188 749 40 597 b 375 0 40 181 188 28 l 375 -93 l 486 -93 l 486 -1 b 771 118 665 13 764 111 l 683 228 b 486 138 683 231 625 153 l 486 640 b 606 610 536 635 578 621 l 611 557 l 726 557 l 726 701 b 486 779 722 704 633 767 l 486 867 l 375 867 z m 179 390 b 375 636 179 519 263 611 l 375 142 b 179 390 263 167 179 258 z "},"ї":{"ha":333,"x_min":0,"x_max":0,"o":"m 236 778 l 97 778 l 97 0 l 236 0 z m -31 950 b 50 876 -31 907 4 876 b 132 950 96 876 132 907 b 50 1025 132 993 96 1025 b -31 950 4 1025 -31 993 z m 201 950 b 282 876 201 907 236 876 b 364 950 328 876 364 907 b 282 1025 364 993 328 1025 b 201 950 236 1025 201 993 z "},"і":{"ha":333,"x_min":0,"x_max":0,"o":"m 236 778 l 97 778 l 97 0 l 236 0 z m 79 974 b 167 894 79 929 118 894 b 256 974 215 894 256 929 b 167 1054 256 1018 215 1054 b 79 974 118 1054 79 1018 z "},"Ґ":{"ha":917,"x_min":0,"x_max":0,"o":"m 722 1201 l 708 1021 l 83 1021 l 83 0 l 222 0 l 222 888 l 833 888 l 833 1201 z "},"¨":{"ha":888,"x_min":0,"x_max":0,"o":"m 217 950 b 297 876 217 907 251 876 b 379 950 343 876 379 907 b 297 1025 379 993 343 1025 b 217 950 251 1025 217 993 z m 508 950 b 589 876 508 907 543 876 b 671 950 635 876 671 907 b 589 1025 671 993 635 1025 b 508 950 543 1025 508 993 z "},"ë":{"ha":882,"x_min":0,"x_max":0,"o":"m 232 950 b 313 876 232 907 267 876 b 394 950 358 876 394 907 b 313 1025 394 993 358 1025 b 232 950 267 1025 232 993 z m 524 950 b 604 876 524 907 558 876 b 686 950 650 876 686 907 b 604 1025 686 993 650 1025 b 524 950 558 1025 524 993 z m 458 131 b 197 340 333 131 222 221 l 664 340 b 828 504 754 340 828 414 b 458 782 828 660 654 782 b 54 390 242 782 54 606 b 458 -4 54 172 242 -4 b 792 118 669 -4 785 111 l 704 228 b 458 131 704 231 633 131 z m 458 647 b 696 504 600 647 696 569 b 664 469 696 486 682 469 l 207 469 b 458 647 243 571 344 647 z "},"Þ":{"ha":839,"x_min":0,"x_max":0,"o":"m 222 144 l 379 144 b 769 531 590 144 769 318 b 379 918 769 747 600 918 l 222 918 l 222 1021 l 83 1021 l 83 0 l 222 0 z m 222 274 l 222 789 l 379 789 b 633 531 519 789 633 671 b 379 274 633 390 519 274 z "},"þ":{"ha":760,"x_min":0,"x_max":0,"o":"m 69 -301 l 208 -301 l 208 44 b 357 -4 265 8 303 -4 b 706 389 576 -4 706 172 b 357 782 706 606 576 782 b 208 721 303 782 265 774 l 208 1088 l 69 1088 z m 357 643 b 567 389 499 643 567 528 b 357 135 567 247 497 135 b 208 175 296 135 257 140 l 208 592 b 357 643 257 631 297 642 z "},"×":{"ha":629,"x_min":0,"x_max":0,"o":"m 246 471 l 117 343 l 185 274 l 314 403 l 444 274 l 513 343 l 383 471 l 513 600 l 444 668 l 314 539 l 185 668 l 117 600 z "},"´":{"ha":314,"x_min":0,"x_max":0,"o":"m 265 1021 l 138 1021 l 49 863 l 139 863 z "},"ý":{"ha":826,"x_min":0,"x_max":0,"o":"m 278 0 l 407 0 l 375 -110 b 315 -162 368 -144 338 -162 l 233 -162 l 233 -287 l 315 -301 b 496 -176 390 -301 472 -257 l 781 778 l 642 778 l 450 139 l 376 139 l 185 778 l 46 778 z m 583 1021 l 456 1021 l 367 863 l 457 863 z "},"ú":{"ha":872,"x_min":0,"x_max":0,"o":"m 208 778 l 69 778 l 69 264 b 383 -4 69 89 192 -4 b 667 126 476 -4 576 57 l 692 0 l 803 0 l 803 778 l 664 778 l 664 263 b 383 128 565 181 483 128 b 208 264 269 128 208 174 z m 600 1021 l 472 1021 l 383 863 l 474 863 z "},"ù":{"ha":872,"x_min":0,"x_max":0,"o":"m 208 778 l 69 778 l 69 264 b 383 -4 69 89 192 -4 b 667 126 476 -4 576 57 l 692 0 l 803 0 l 803 778 l 664 778 l 664 263 b 383 128 565 181 483 128 b 208 264 269 128 208 174 z m 414 863 l 504 863 l 415 1021 l 288 1021 z "},"ü":{"ha":872,"x_min":0,"x_max":0,"o":"m 208 778 l 69 778 l 69 264 b 383 -4 69 89 192 -4 b 667 126 476 -4 576 57 l 692 0 l 803 0 l 803 778 l 664 778 l 664 263 b 383 128 565 181 483 128 b 208 264 269 128 208 174 z m 208 950 b 289 876 208 907 243 876 b 371 950 335 876 371 907 b 289 1025 371 993 335 1025 b 208 950 243 1025 208 993 z m 500 950 b 581 876 500 907 535 876 b 663 950 626 876 663 907 b 581 1025 663 993 626 1025 b 500 950 535 1025 500 993 z "},"ÿ":{"ha":826,"x_min":0,"x_max":0,"o":"m 278 0 l 407 0 l 375 -110 b 315 -162 368 -144 338 -162 l 233 -162 l 233 -287 l 315 -301 b 496 -176 390 -301 472 -257 l 781 778 l 642 778 l 450 139 l 376 139 l 185 778 l 46 778 z m 185 950 b 265 876 185 907 219 876 b 347 950 311 876 347 907 b 265 1025 347 993 311 1025 b 185 950 219 1025 185 993 z m 476 950 b 557 876 476 907 511 876 b 639 950 603 876 639 907 b 557 1025 639 993 603 1025 b 476 950 511 1025 476 993 z "},"ö":{"ha":915,"x_min":0,"x_max":0,"o":"m 458 782 b 54 390 242 782 54 606 b 458 -4 54 172 242 -4 b 861 390 674 -4 861 172 b 458 782 861 606 674 782 z m 458 643 b 722 390 600 643 722 529 b 458 135 722 249 600 135 b 193 390 317 135 193 249 b 458 643 193 529 317 643 z m 229 950 b 310 876 229 907 264 876 b 392 950 356 876 392 907 b 310 1025 392 993 356 1025 b 229 950 264 1025 229 993 z m 521 950 b 601 876 521 907 556 876 b 683 950 647 876 683 907 b 601 1025 683 993 647 1025 b 521 950 556 1025 521 993 z "},"í":{"ha":333,"x_min":0,"x_max":0,"o":"m 236 778 l 97 778 l 97 0 l 236 0 z m 303 1021 l 175 1021 l 86 863 l 176 863 z "},"ä":{"ha":844,"x_min":0,"x_max":0,"o":"m 319 -4 b 642 115 460 -4 565 54 l 664 0 l 775 0 l 775 465 b 444 782 775 682 636 782 b 138 696 308 782 238 746 l 138 557 l 249 557 l 257 613 b 444 650 313 642 360 650 b 633 497 546 650 618 608 l 319 497 b 69 247 182 497 69 385 b 319 -4 69 108 182 -4 z m 319 131 b 204 247 256 131 204 183 b 319 363 204 311 256 363 l 636 363 l 636 256 b 319 131 561 183 471 131 z m 222 950 b 303 876 222 907 257 876 b 385 950 349 876 385 907 b 303 1025 385 993 349 1025 b 222 950 257 1025 222 993 z m 514 950 b 594 876 514 907 549 876 b 676 950 640 876 676 907 b 594 1025 676 993 640 1025 b 514 950 549 1025 514 993 z "},"é":{"ha":881,"x_min":0,"x_max":0,"o":"m 604 1021 l 476 1021 l 388 863 l 478 863 z m 458 131 b 197 340 333 131 222 221 l 664 340 b 828 504 754 340 828 414 b 458 782 828 660 654 782 b 54 390 242 782 54 606 b 458 -4 54 172 242 -4 b 792 118 669 -4 785 111 l 704 228 b 458 131 704 231 633 131 z m 458 647 b 696 504 600 647 696 569 b 664 469 696 486 682 469 l 207 469 b 458 647 243 571 344 647 z "},"è":{"ha":882,"x_min":0,"x_max":0,"o":"m 429 863 l 519 863 l 431 1021 l 303 1021 z m 458 131 b 197 340 333 131 222 221 l 664 340 b 828 504 754 340 828 414 b 458 782 828 660 654 782 b 54 390 242 782 54 606 b 458 -4 54 172 242 -4 b 792 118 669 -4 785 111 l 704 228 b 458 131 704 231 633 131 z m 458 647 b 696 504 600 647 696 569 b 664 469 696 486 682 469 l 207 469 b 458 647 243 571 344 647 z "},"ˇ":{"ha":492,"x_min":0,"x_max":0,"o":"m 194 863 l 297 863 l 422 1021 l 324 1021 l 261 942 l 231 942 l 168 1021 l 69 1021 z "},"ˆ":{"ha":492,"x_min":0,"x_max":0,"o":"m 69 863 l 168 863 l 231 942 l 261 942 l 324 863 l 422 863 l 297 1021 l 194 1021 z "},"à":{"ha":844,"x_min":0,"x_max":0,"o":"m 319 -4 b 642 115 460 -4 565 54 l 664 0 l 775 0 l 775 465 b 444 782 775 682 636 782 b 138 696 308 782 238 746 l 138 557 l 249 557 l 257 613 b 444 650 313 642 360 650 b 633 497 546 650 618 608 l 319 497 b 69 247 182 497 69 385 b 319 -4 69 108 182 -4 z m 319 131 b 204 247 256 131 204 183 b 319 363 204 311 256 363 l 636 363 l 636 256 b 319 131 561 183 471 131 z m 440 863 l 531 863 l 442 1021 l 314 1021 z "},"á":{"ha":844,"x_min":0,"x_max":0,"o":"m 319 -4 b 642 115 460 -4 565 54 l 664 0 l 775 0 l 775 465 b 444 782 775 682 636 782 b 138 696 308 782 238 746 l 138 557 l 249 557 l 257 613 b 444 650 313 642 360 650 b 633 497 546 650 618 608 l 319 497 b 69 247 182 497 69 385 b 319 -4 69 108 182 -4 z m 319 131 b 204 247 256 131 204 183 b 319 363 204 311 256 363 l 636 363 l 636 256 b 319 131 561 183 471 131 z m 572 1021 l 444 1021 l 356 863 l 446 863 z "},"â":{"ha":844,"x_min":0,"x_max":0,"o":"m 319 -4 b 642 115 460 -4 565 54 l 664 0 l 775 0 l 775 465 b 444 782 775 682 636 782 b 138 696 308 782 238 746 l 138 557 l 249 557 l 257 613 b 444 650 313 642 360 650 b 633 497 546 650 618 608 l 319 497 b 69 247 182 497 69 385 b 319 -4 69 108 182 -4 z m 319 131 b 204 247 256 131 204 183 b 319 363 204 311 256 363 l 636 363 l 636 256 b 319 131 561 183 471 131 z m 274 863 l 372 863 l 435 942 l 465 942 l 528 863 l 626 863 l 501 1021 l 399 1021 z "},"û":{"ha":872,"x_min":0,"x_max":0,"o":"m 208 778 l 69 778 l 69 264 b 383 -4 69 89 192 -4 b 667 126 476 -4 576 57 l 692 0 l 803 0 l 803 778 l 664 778 l 664 263 b 383 128 565 181 483 128 b 208 264 269 128 208 174 z m 260 863 l 358 863 l 421 942 l 451 942 l 514 863 l 613 863 l 488 1021 l 385 1021 z "},"ô":{"ha":915,"x_min":0,"x_max":0,"o":"m 458 782 b 54 390 242 782 54 606 b 458 -4 54 172 242 -4 b 861 390 674 -4 861 172 b 458 782 861 606 674 782 z m 458 643 b 722 390 600 643 722 529 b 458 135 722 249 600 135 b 193 390 317 135 193 249 b 458 643 193 529 317 643 z m 281 863 l 379 863 l 442 942 l 472 942 l 535 863 l 633 863 l 508 1021 l 406 1021 z "},"ó":{"ha":915,"x_min":0,"x_max":0,"o":"m 458 782 b 54 390 242 782 54 606 b 458 -4 54 172 242 -4 b 861 390 674 -4 861 172 b 458 782 861 606 674 782 z m 458 643 b 722 390 600 643 722 529 b 458 135 722 249 600 135 b 193 390 317 135 193 249 b 458 643 193 529 317 643 z m 604 1021 l 476 1021 l 388 863 l 478 863 z "},"ï":{"ha":333,"x_min":0,"x_max":0,"o":"m 236 778 l 97 778 l 97 0 l 236 0 z m -61 950 b 19 876 -61 907 -26 876 b 101 950 65 876 101 907 b 19 1025 101 993 65 1025 b -61 950 -26 1025 -61 993 z m 231 950 b 311 876 231 907 265 876 b 393 950 357 876 393 907 b 311 1025 393 993 357 1025 b 231 950 265 1025 231 993 z "},"ê":{"ha":882,"x_min":0,"x_max":0,"o":"m 290 863 l 389 863 l 451 942 l 482 942 l 544 863 l 643 863 l 518 1021 l 415 1021 z m 458 131 b 197 340 333 131 222 221 l 664 340 b 828 504 754 340 828 414 b 458 782 828 660 654 782 b 54 390 242 782 54 606 b 458 -4 54 172 242 -4 b 792 118 669 -4 785 111 l 704 228 b 458 131 704 231 633 131 z m 458 647 b 696 504 600 647 696 569 b 664 469 696 486 682 469 l 207 469 b 458 647 243 571 344 647 z "},"¿":{"ha":728,"x_min":0,"x_max":0,"o":"m 454 636 b 357 725 454 686 411 725 b 256 636 300 725 256 686 b 357 546 256 586 300 546 b 454 636 411 546 454 586 z m 294 351 b 224 261 294 324 271 283 b 28 -31 96 200 28 113 b 357 -306 28 -208 188 -306 b 703 -110 529 -306 639 -185 l 599 -18 b 357 -167 560 -61 489 -167 b 167 -31 265 -167 167 -129 b 283 135 167 50 197 94 b 419 351 364 172 419 257 l 419 429 l 294 429 z "},"¡":{"ha":358,"x_min":0,"x_max":0,"o":"m 82 635 b 179 544 82 585 125 544 b 281 635 236 544 281 585 b 179 724 281 685 236 724 b 82 635 125 724 82 685 z m 253 428 l 125 428 l 125 -301 l 253 -301 z "},"¥":{"ha":953,"x_min":0,"x_max":0,"o":"m 546 310 l 546 393 l 833 393 l 833 490 l 664 490 l 919 1021 l 781 1021 l 526 490 l 426 490 l 172 1021 l 33 1021 l 288 490 l 119 490 l 119 393 l 407 393 l 407 310 l 119 310 l 119 213 l 407 213 l 407 0 l 546 0 l 546 213 l 833 213 l 833 310 z "},"˚":{"ha":492,"x_min":0,"x_max":0,"o":"m 133 954 b 246 842 133 893 185 842 b 358 954 307 842 358 893 b 246 1067 358 1015 307 1067 b 133 954 185 1067 133 1015 z m 199 954 b 246 1001 199 981 219 1001 b 293 954 272 1001 293 981 b 246 907 293 928 272 907 b 199 954 219 907 199 928 z "},"å":{"ha":844,"x_min":0,"x_max":0,"o":"m 319 -4 b 642 115 460 -4 565 54 l 664 0 l 775 0 l 775 465 b 444 782 775 682 636 782 b 138 696 308 782 238 746 l 138 557 l 249 557 l 257 613 b 444 650 313 642 360 650 b 633 497 546 650 618 608 l 319 497 b 69 247 182 497 69 385 b 319 -4 69 108 182 -4 z m 319 131 b 204 247 256 131 204 183 b 319 363 204 311 256 363 l 636 363 l 636 256 b 319 131 561 183 471 131 z m 338 954 b 450 842 338 893 389 842 b 563 954 511 842 563 893 b 450 1067 563 1015 511 1067 b 338 954 389 1067 338 1015 z m 403 954 b 450 1001 403 981 424 1001 b 497 954 476 1001 497 981 b 450 907 497 928 476 907 b 403 954 424 907 403 928 z "},"¤":{"ha":878,"x_min":0,"x_max":0,"o":"m 88 431 b 157 218 88 350 113 278 l 50 111 l 119 42 l 226 149 b 439 79 286 104 358 79 b 650 150 518 79 590 106 l 758 42 l 828 111 l 719 219 b 790 431 764 278 790 351 b 719 642 790 510 764 582 l 828 750 l 758 819 l 650 711 b 439 782 590 756 518 782 b 228 711 360 782 286 756 l 119 819 l 50 750 l 158 642 b 88 431 114 582 88 510 z m 185 431 b 439 685 185 571 299 685 b 693 431 579 685 693 571 b 439 176 693 290 579 176 b 185 431 299 176 185 290 z "},"¦":{"ha":375,"x_min":0,"x_max":0,"o":"m 139 601 l 236 601 l 236 1088 l 139 1088 z m 139 -162 l 236 -162 l 236 324 l 139 324 z "},"ı":{"ha":333,"x_min":0,"x_max":0,"o":"m 236 778 l 97 778 l 97 0 l 236 0 z "},"î":{"ha":333,"x_min":0,"x_max":0,"o":"m 236 778 l 97 778 l 97 0 l 236 0 z m -10 863 l 89 863 l 151 942 l 182 942 l 244 863 l 343 863 l 218 1021 l 115 1021 z "},"š":{"ha":846,"x_min":0,"x_max":0,"o":"m 424 -4 b 785 240 631 -4 785 93 b 424 469 785 401 628 469 b 224 557 265 469 224 508 b 424 646 224 611 314 646 b 608 610 504 646 567 626 l 626 564 l 733 564 l 733 701 b 424 782 729 704 600 782 b 85 557 228 782 85 682 b 424 333 85 415 193 333 b 646 240 615 333 646 292 b 424 132 646 163 519 132 b 143 228 249 132 143 231 l 56 118 b 424 -4 63 113 213 -4 z m 371 863 l 474 863 l 599 1021 l 500 1021 l 438 942 l 407 942 l 344 1021 l 246 1021 z "},"ž":{"ha":817,"x_min":0,"x_max":0,"o":"m 69 0 l 747 0 l 747 139 l 208 139 l 208 158 l 747 575 l 747 778 l 69 778 l 69 653 l 608 653 l 608 626 l 69 208 z m 357 863 l 460 863 l 585 1021 l 486 1021 l 424 942 l 393 942 l 331 1021 l 232 1021 z "},"¸":{"ha":404,"x_min":0,"x_max":0,"o":"m 69 -301 l 104 -301 b 335 -165 208 -301 335 -285 b 203 -69 335 -89 246 -69 l 233 15 l 136 15 l 99 -151 l 164 -151 b 211 -192 196 -151 211 -165 b 85 -246 211 -240 118 -244 z "},"ç":{"ha":839,"x_min":0,"x_max":0,"o":"m 333 -301 l 368 -301 b 599 -165 472 -301 599 -285 b 467 -69 599 -89 510 -69 l 497 15 l 400 15 l 363 -151 l 428 -151 b 475 -192 460 -151 475 -165 b 349 -246 475 -240 382 -244 z m 451 643 b 619 610 525 643 583 625 l 625 557 l 740 557 l 740 701 b 451 782 736 704 628 782 b 54 390 235 782 54 619 b 451 -4 54 158 235 -4 b 785 118 663 -4 778 111 l 697 228 b 451 135 697 231 626 135 b 193 390 310 135 193 235 b 451 643 193 543 310 643 z "},"Ѕ":{"ha":1022,"x_min":0,"x_max":0,"o":"m 508 888 b 756 842 590 888 683 875 l 772 731 l 894 731 l 894 926 b 508 1026 783 996 631 1026 b 85 746 338 1026 85 944 b 529 469 85 515 324 469 b 799 307 685 469 799 431 b 499 135 799 222 685 135 b 128 278 342 135 218 189 l 46 157 b 500 -4 160 57 308 -4 b 953 307 717 -4 953 115 b 522 613 953 553 733 613 b 239 746 369 613 239 639 b 508 888 239 824 369 888 z "},"ѕ":{"ha":846,"x_min":0,"x_max":0,"o":"m 396 -4 b 757 240 603 -4 757 93 b 396 469 757 429 558 469 b 196 557 196 469 196 532 b 396 646 196 593 272 646 b 581 610 476 646 539 626 l 599 564 l 706 564 l 706 701 b 396 782 701 704 572 782 b 57 557 200 782 57 682 b 396 333 57 415 165 333 b 618 240 588 333 618 292 b 396 132 618 163 492 132 b 115 228 221 132 115 231 l 28 118 b 396 -4 35 113 185 -4 z "},"ј":{"ha":458,"x_min":0,"x_max":0,"o":"m 50 -287 l 153 -301 b 389 -47 317 -301 389 -194 l 389 778 l 250 778 l 250 -47 b 153 -169 250 -131 197 -169 l 50 -169 z m 232 974 b 319 894 232 929 271 894 b 408 974 368 894 408 929 b 319 1054 408 1018 368 1054 b 232 974 271 1054 232 1018 z "},"Ј":{"ha":1028,"x_min":0,"x_max":0,"o":"m 278 400 l 278 511 l 83 511 l 83 372 b 515 -4 83 171 247 -4 b 946 456 785 -4 946 171 l 946 1021 l 807 1021 l 807 456 b 515 135 807 232 693 135 b 224 372 338 135 224 232 z "},"І":{"ha":333,"x_min":0,"x_max":0,"o":"m 236 1021 l 97 1021 l 97 0 l 236 0 z "},"Є":{"ha":1032,"x_min":0,"x_max":0,"o":"m 207 588 b 588 888 246 768 419 888 b 796 847 667 888 738 876 l 813 731 l 935 731 l 935 926 b 588 1026 824 996 710 1026 b 60 511 304 1026 60 796 b 588 -4 60 226 304 -4 b 988 176 744 -4 889 67 l 889 275 b 588 135 819 192 713 135 b 203 463 410 135 228 265 l 782 463 l 782 588 z "},"є":{"ha":807,"x_min":0,"x_max":0,"o":"m 438 782 b 40 390 221 782 40 619 b 438 -4 40 158 221 -4 b 771 118 649 -4 764 111 l 683 228 b 438 135 683 231 613 135 b 183 340 313 135 206 214 l 604 340 l 604 469 l 192 469 b 438 643 224 576 322 643 b 606 610 514 643 569 625 l 625 564 l 726 564 l 726 701 b 438 782 722 704 614 782 z "},"ґ":{"ha":706,"x_min":0,"x_max":0,"o":"m 518 931 l 504 778 l 69 778 l 69 0 l 208 0 l 208 649 l 636 649 l 636 931 z "},"ќ":{"ha":879,"x_min":0,"x_max":0,"o":"m 443 340 b 499 286 465 338 483 318 l 575 121 b 756 -4 613 40 679 -4 l 810 10 l 810 135 l 756 135 b 697 189 733 135 713 154 l 621 354 b 569 406 611 374 582 401 b 624 463 582 413 615 440 l 671 585 b 729 639 685 619 707 639 l 783 639 l 783 764 l 729 778 b 549 653 654 778 585 733 l 501 531 b 446 469 489 497 465 472 l 208 469 l 208 778 l 69 778 l 69 0 l 208 0 l 208 340 z m 558 1021 l 431 1021 l 342 863 l 432 863 z "},"ѓ":{"ha":706,"x_min":0,"x_max":0,"o":"m 208 0 l 208 649 l 636 649 l 636 778 l 69 778 l 69 0 z m 504 1021 l 376 1021 l 288 863 l 378 863 z "},"µ":{"ha":900,"x_min":0,"x_max":0,"o":"m 222 778 l 83 778 l 83 -306 l 222 -306 l 222 31 b 397 -4 269 7 329 -4 b 681 126 490 -4 590 57 l 706 0 l 817 0 l 817 778 l 678 778 l 678 263 b 397 128 579 181 497 128 b 222 264 283 128 222 174 z "},"Ї":{"ha":333,"x_min":0,"x_max":0,"o":"m -51 1182 b 36 1103 -51 1138 -12 1103 b 125 1182 85 1103 125 1138 b 36 1263 125 1226 85 1263 b -51 1182 -12 1263 -51 1226 z m 213 1182 b 300 1103 214 1138 250 1103 b 389 1182 349 1103 389 1138 b 300 1263 389 1226 349 1263 b 213 1182 251 1263 213 1226 z m 236 1021 l 97 1021 l 97 0 l 236 0 z "},"¶":{"ha":875,"x_min":0,"x_max":0,"o":"m 536 -246 l 675 -246 l 675 896 l 806 896 l 806 1021 l 286 1021 b 69 811 156 1021 69 928 b 286 604 69 694 156 604 l 286 -246 l 425 -246 l 425 896 l 536 896 z "},"Ѓ":{"ha":917,"x_min":0,"x_max":0,"o":"m 83 1021 l 83 0 l 222 0 l 222 889 l 833 889 l 833 1021 z m 608 1261 l 481 1261 l 392 1103 l 482 1103 z "},"É":{"ha":944,"x_min":0,"x_max":0,"o":"m 222 132 l 222 463 l 708 463 l 708 594 l 222 594 l 222 889 l 819 889 l 819 1021 l 83 1021 l 83 0 l 861 0 l 861 132 z m 594 1264 l 467 1264 l 378 1106 l 468 1106 z "},"Ë":{"ha":944,"x_min":0,"x_max":0,"o":"m 243 1193 b 324 1119 243 1150 278 1119 b 406 1193 369 1119 406 1150 b 324 1268 406 1236 369 1268 b 243 1193 278 1268 243 1236 z m 535 1193 b 615 1119 535 1150 569 1119 b 697 1193 661 1119 697 1150 b 615 1268 697 1236 661 1268 b 535 1193 569 1268 535 1236 z m 222 118 l 222 469 l 708 469 l 708 581 l 222 581 l 222 910 l 819 910 l 819 1021 l 83 1021 l 83 0 l 861 0 l 861 118 z "},"Á":{"ha":1111,"x_min":0,"x_max":0,"o":"m 306 279 l 806 279 l 889 0 l 1028 0 l 722 1021 l 389 1021 l 83 0 l 222 0 z m 490 896 l 621 896 l 768 404 l 343 404 z m 692 1264 l 564 1264 l 475 1106 l 565 1106 z "},"Í":{"ha":333,"x_min":0,"x_max":0,"o":"m 236 1021 l 97 1021 l 97 0 l 236 0 z m 275 1264 l 147 1264 l 58 1106 l 149 1106 z "},"Ú":{"ha":1072,"x_min":0,"x_max":0,"o":"m 222 1021 l 83 1021 l 83 460 b 536 -4 83 143 306 -4 b 989 460 767 -4 989 143 l 989 1021 l 850 1021 l 850 460 b 535 135 850 250 721 135 b 222 460 350 135 222 250 z m 697 1264 l 569 1264 l 481 1106 l 571 1106 z "},"Ý":{"ha":953,"x_min":0,"x_max":0,"o":"m 546 532 l 407 532 l 172 1021 l 33 1021 l 335 393 l 407 393 l 407 0 l 546 0 l 546 393 l 618 393 l 919 1021 l 781 1021 z m 626 1264 l 499 1264 l 410 1106 l 500 1106 z "},"Ÿ":{"ha":953,"x_min":0,"x_max":0,"o":"m 546 532 l 407 532 l 172 1021 l 33 1021 l 335 393 l 407 393 l 407 0 l 546 0 l 546 393 l 618 393 l 919 1021 l 781 1021 z m 247 1193 b 328 1119 247 1150 282 1119 b 410 1193 374 1119 410 1150 b 328 1268 410 1236 374 1268 b 247 1193 282 1268 247 1236 z m 539 1193 b 619 1119 539 1150 574 1119 b 701 1193 665 1119 701 1150 b 619 1268 701 1236 665 1268 b 539 1193 574 1268 539 1236 z "},"Ä":{"ha":1111,"x_min":0,"x_max":0,"o":"m 306 279 l 806 279 l 889 0 l 1028 0 l 722 1021 l 389 1021 l 83 0 l 222 0 z m 490 896 l 621 896 l 768 404 l 343 404 z m 326 1193 b 407 1119 326 1150 361 1119 b 489 1193 453 1119 489 1150 b 407 1268 489 1236 453 1268 b 326 1193 361 1268 326 1236 z m 618 1193 b 699 1119 618 1150 653 1119 b 781 1193 744 1119 781 1150 b 699 1268 781 1236 744 1268 b 618 1193 653 1268 618 1236 z "},"Ï":{"ha":333,"x_min":0,"x_max":0,"o":"m 236 1021 l 97 1021 l 97 0 l 236 0 z m -61 1193 b 19 1119 -61 1150 -26 1119 b 101 1193 65 1119 101 1150 b 19 1268 101 1236 65 1268 b -61 1193 -26 1268 -61 1236 z m 231 1193 b 311 1119 231 1150 265 1119 b 393 1193 357 1119 393 1150 b 311 1268 393 1236 357 1268 b 231 1193 265 1268 231 1236 z "},"Ö":{"ha":1204,"x_min":0,"x_max":0,"o":"m 601 886 b 992 511 789 886 992 739 b 601 135 992 321 826 135 b 213 511 410 135 213 288 b 601 886 213 701 379 886 z m 601 1025 b 74 511 318 1025 74 794 b 601 -4 74 226 318 -4 b 1131 511 886 -4 1131 226 b 601 1025 1131 794 886 1025 z m 374 1193 b 454 1119 374 1150 408 1119 b 536 1193 500 1119 536 1150 b 454 1268 536 1236 500 1268 b 374 1193 408 1268 374 1236 z m 665 1193 b 746 1119 665 1150 700 1119 b 828 1193 792 1119 828 1150 b 746 1268 828 1236 792 1268 b 665 1193 700 1268 665 1236 z "},"Ü":{"ha":1072,"x_min":0,"x_max":0,"o":"m 222 1021 l 83 1021 l 83 460 b 536 -4 83 143 306 -4 b 989 460 767 -4 989 143 l 989 1021 l 850 1021 l 850 460 b 535 135 850 250 721 135 b 222 460 350 135 222 250 z m 307 1193 b 388 1119 307 1150 342 1119 b 469 1193 433 1119 469 1150 b 388 1268 469 1236 433 1268 b 307 1193 342 1268 307 1236 z m 599 1193 b 679 1119 599 1150 633 1119 b 761 1193 725 1119 761 1150 b 679 1268 761 1236 725 1268 b 599 1193 633 1268 599 1236 z "},"Â":{"ha":1111,"x_min":0,"x_max":0,"o":"m 306 279 l 806 279 l 889 0 l 1028 0 l 722 1021 l 389 1021 l 83 0 l 222 0 z m 490 896 l 621 896 l 768 404 l 343 404 z m 379 1106 l 478 1106 l 540 1185 l 571 1185 l 633 1106 l 732 1106 l 607 1264 l 504 1264 z "},"À":{"ha":1111,"x_min":0,"x_max":0,"o":"m 306 279 l 806 279 l 889 0 l 1028 0 l 722 1021 l 389 1021 l 83 0 l 222 0 z m 490 896 l 621 896 l 768 404 l 343 404 z m 560 1106 l 650 1106 l 561 1264 l 433 1264 z "},"Å":{"ha":1111,"x_min":0,"x_max":0,"o":"m 306 279 l 806 279 l 889 0 l 1028 0 l 722 1021 l 389 1021 l 83 0 l 222 0 z m 490 896 l 621 896 l 768 404 l 343 404 z m 443 1197 b 556 1085 443 1136 494 1085 b 668 1197 617 1085 668 1136 b 556 1310 668 1258 617 1310 b 443 1197 494 1310 443 1258 z m 508 1197 b 556 1244 508 1224 529 1244 b 603 1197 582 1244 603 1224 b 556 1150 603 1171 582 1150 b 508 1197 529 1150 508 1171 z "},"È":{"ha":944,"x_min":0,"x_max":0,"o":"m 222 132 l 222 463 l 708 463 l 708 594 l 222 594 l 222 889 l 819 889 l 819 1021 l 83 1021 l 83 0 l 861 0 l 861 132 z m 463 1106 l 553 1106 l 464 1264 l 336 1264 z "},"Ç":{"ha":1075,"x_min":0,"x_max":0,"o":"m 826 758 l 949 758 l 949 926 b 601 1026 838 996 724 1026 b 74 511 318 1026 74 796 b 601 -4 74 226 318 -4 b 1001 176 758 -4 903 67 l 903 275 b 601 135 833 192 726 135 b 213 511 410 135 213 288 b 601 888 213 735 410 888 b 810 847 679 888 750 876 z m 472 -301 l 507 -301 b 738 -165 611 -301 738 -285 b 606 -69 738 -89 649 -69 l 636 15 l 539 15 l 501 -151 l 567 -151 b 614 -192 599 -151 614 -165 b 488 -246 614 -240 521 -244 z "},"Ê":{"ha":944,"x_min":0,"x_max":0,"o":"m 222 132 l 222 463 l 708 463 l 708 594 l 222 594 l 222 889 l 819 889 l 819 1021 l 83 1021 l 83 0 l 861 0 l 861 132 z m 296 1106 l 394 1106 l 457 1185 l 488 1185 l 550 1106 l 649 1106 l 524 1264 l 421 1264 z "},"Î":{"ha":333,"x_min":0,"x_max":0,"o":"m 236 1021 l 97 1021 l 97 0 l 236 0 z m -10 1106 l 89 1106 l 151 1185 l 182 1185 l 244 1106 l 343 1106 l 218 1264 l 115 1264 z "},"Ô":{"ha":1204,"x_min":0,"x_max":0,"o":"m 425 1106 l 524 1106 l 586 1185 l 617 1185 l 679 1106 l 778 1106 l 653 1264 l 550 1264 z m 601 886 b 992 511 789 886 992 739 b 601 135 992 321 826 135 b 213 511 410 135 213 288 b 601 886 213 701 379 886 z m 601 1025 b 74 511 318 1025 74 794 b 601 -4 74 226 318 -4 b 1131 511 886 -4 1131 226 b 601 1025 1131 794 886 1025 z "},"Ó":{"ha":1204,"x_min":0,"x_max":0,"o":"m 603 886 b 992 511 825 886 992 701 b 603 135 992 288 794 135 b 213 511 378 135 213 321 b 603 886 213 739 415 886 z m 603 1025 b 74 511 318 1025 74 794 b 603 -4 74 226 318 -4 b 1131 511 886 -4 1131 226 b 603 1025 1131 794 886 1025 z m 729 1264 l 601 1264 l 513 1106 l 603 1106 z "},"Û":{"ha":1072,"x_min":0,"x_max":0,"o":"m 222 1021 l 83 1021 l 83 460 b 536 -4 83 143 306 -4 b 989 460 767 -4 989 143 l 989 1021 l 850 1021 l 850 460 b 535 135 850 250 721 135 b 222 460 350 135 222 250 z m 360 1106 l 458 1106 l 521 1185 l 551 1185 l 614 1106 l 713 1106 l 588 1264 l 485 1264 z "},"Ù":{"ha":1072,"x_min":0,"x_max":0,"o":"m 222 1021 l 83 1021 l 83 460 b 536 -4 83 143 306 -4 b 989 460 767 -4 989 143 l 989 1021 l 850 1021 l 850 460 b 535 135 850 250 721 135 b 222 460 350 135 222 250 z m 513 1106 l 603 1106 l 514 1264 l 386 1264 z "},"Ž":{"ha":917,"x_min":0,"x_max":0,"o":"m 69 0 l 847 0 l 847 125 l 194 125 l 194 151 l 847 826 l 847 1021 l 69 1021 l 69 896 l 722 896 l 722 868 l 69 193 z m 407 1106 l 510 1106 l 635 1264 l 536 1264 l 474 1185 l 443 1185 l 381 1264 l 282 1264 z "},"Š":{"ha":1022,"x_min":0,"x_max":0,"o":"m 508 888 b 756 842 590 888 683 875 l 772 758 l 894 758 l 894 926 b 508 1026 783 996 631 1026 b 85 746 338 1026 85 944 b 529 469 85 515 324 469 b 799 307 685 469 799 431 b 499 135 799 222 685 135 b 128 278 342 135 218 189 l 46 157 b 500 -4 160 57 308 -4 b 953 307 717 -4 953 115 b 522 613 953 553 733 613 b 239 746 369 613 239 639 b 508 888 239 824 369 888 z m 460 1106 l 563 1106 l 688 1264 l 589 1264 l 526 1185 l 496 1185 l 433 1264 l 335 1264 z "},"£":{"ha":1014,"x_min":0,"x_max":0,"o":"m 181 0 b 343 72 258 58 292 72 b 676 0 456 72 558 0 b 931 254 840 0 931 104 l 792 254 b 676 139 792 181 750 139 b 374 208 574 139 476 199 b 407 325 396 257 407 300 b 394 417 407 356 401 386 l 679 417 l 679 514 l 365 514 b 324 703 344 576 324 639 b 508 894 324 804 407 894 b 694 703 611 894 694 804 l 833 703 b 508 1026 833 881 688 1026 b 185 703 331 1026 185 881 b 226 514 185 636 206 575 l 83 514 l 83 417 l 256 417 b 268 325 263 386 268 357 b 97 100 268 228 203 174 z "},"¬":{"ha":911,"x_min":0,"x_max":0,"o":"m 814 639 l 97 639 l 97 528 l 703 528 l 703 297 l 814 297 z "},"Ќ":{"ha":1047,"x_min":0,"x_max":0,"o":"m 572 643 b 503 594 558 608 525 594 l 222 594 l 222 1021 l 83 1021 l 83 0 l 222 0 l 222 456 l 524 456 b 596 401 546 456 582 436 l 728 121 b 908 -4 765 40 833 -4 l 964 10 l 964 135 l 908 135 b 850 189 886 135 865 154 l 744 418 b 640 538 719 474 679 522 b 718 629 672 547 700 589 l 811 833 b 867 882 825 864 846 882 l 908 882 l 908 1007 l 867 1021 b 690 896 792 1021 728 976 z m 633 1264 l 506 1264 l 417 1106 l 507 1106 z "},"~":{"ha":1058,"x_min":0,"x_max":0,"o":"m 575 500 b 328 624 444 603 392 624 b 97 358 175 624 97 490 l 222 358 b 328 499 222 421 250 499 b 488 407 357 499 383 489 b 731 288 613 308 667 288 b 961 553 883 288 961 421 l 836 553 b 731 413 836 490 808 413 b 575 500 701 413 675 422 z "},"˜":{"ha":731,"x_min":0,"x_max":0,"o":"m 411 863 b 553 1021 492 863 553 931 l 464 1021 b 411 953 464 990 442 953 b 258 1021 371 953 344 1021 b 117 863 178 1021 117 951 l 206 863 b 258 931 206 896 228 931 b 411 863 297 931 325 863 z "},"õ":{"ha":915,"x_min":0,"x_max":0,"o":"m 458 782 b 54 390 242 782 54 606 b 458 -4 54 172 242 -4 b 861 390 674 -4 861 172 b 458 782 861 606 674 782 z m 458 643 b 722 390 600 643 722 529 b 458 135 722 249 600 135 b 193 390 317 135 193 249 b 458 643 193 529 317 643 z m 533 863 b 675 1021 614 863 675 931 l 586 1021 b 533 953 586 990 564 953 b 381 1021 493 953 467 1021 b 239 863 300 1021 239 951 l 328 863 b 381 931 328 896 350 931 b 533 863 419 931 447 863 z "},"Õ":{"ha":1204,"x_min":0,"x_max":0,"o":"m 678 1106 b 819 1264 758 1106 819 1174 l 731 1264 b 678 1196 731 1233 708 1196 b 525 1264 638 1196 611 1264 b 383 1106 444 1264 383 1194 l 472 1106 b 525 1174 472 1139 494 1174 b 678 1106 564 1174 592 1106 z m 601 886 b 992 511 789 886 992 739 b 601 135 992 321 826 135 b 213 511 410 135 213 288 b 601 886 213 701 379 886 z m 601 1025 b 74 511 318 1025 74 794 b 601 -4 74 226 318 -4 b 1131 511 886 -4 1131 226 b 601 1025 1131 794 886 1025 z "},"˛":{"ha":342,"x_min":0,"x_max":0,"o":"m 263 -183 b 236 -192 253 -189 244 -192 b 193 -142 214 -192 193 -171 b 251 0 193 -94 210 -58 l 196 13 b 79 -169 119 -32 79 -110 b 197 -301 79 -242 133 -301 b 263 -285 218 -301 240 -299 z "},"Ą":{"ha":1111,"x_min":0,"x_max":0,"o":"m 975 -183 b 949 -192 965 -189 957 -192 b 906 -142 926 -192 906 -171 b 964 0 906 -94 922 -58 l 1028 0 l 722 1021 l 389 1021 l 83 0 l 222 0 l 306 279 l 806 279 l 889 0 b 792 -169 825 -46 792 -115 b 910 -301 792 -242 846 -301 b 975 -285 931 -301 953 -299 z m 490 896 l 621 896 l 768 404 l 343 404 z "},"ć":{"ha":807,"x_min":0,"x_max":0,"o":"m 438 643 b 606 610 511 643 569 625 l 611 557 l 726 557 l 726 701 b 438 782 722 704 614 782 b 40 390 221 782 40 619 b 438 -4 40 158 221 -4 b 771 118 649 -4 764 111 l 683 228 b 438 135 683 231 613 135 b 179 390 296 135 179 235 b 438 643 179 543 296 643 z m 581 1021 l 453 1021 l 364 863 l 454 863 z "},"Ć":{"ha":1032,"x_min":0,"x_max":0,"o":"m 813 758 l 935 758 l 935 926 b 588 1026 824 996 710 1026 b 60 511 304 1026 60 796 b 588 -4 60 226 304 -4 b 988 176 744 -4 889 67 l 889 275 b 588 135 819 192 713 135 b 199 511 396 135 199 288 b 588 888 199 735 396 888 b 796 847 665 888 736 876 z m 721 1264 l 593 1264 l 504 1106 l 594 1106 z "},"ą":{"ha":844,"x_min":0,"x_max":0,"o":"m 750 -183 b 724 -192 740 -189 732 -192 b 681 -142 701 -192 681 -171 b 739 0 681 -94 697 -58 l 775 0 l 775 465 b 444 782 775 682 636 782 b 138 696 308 782 238 746 l 138 557 l 249 557 l 257 613 b 444 650 313 642 360 650 b 633 497 546 650 618 608 l 319 497 b 69 247 182 497 69 385 b 319 -4 69 108 182 -4 b 642 115 460 -4 565 54 l 664 0 b 567 -169 600 -46 567 -115 b 685 -301 567 -242 621 -301 b 750 -285 706 -301 728 -299 z m 319 131 b 204 247 256 131 204 183 b 319 363 204 311 256 363 l 636 363 l 636 256 b 319 131 561 183 471 131 z "},"į":{"ha":333,"x_min":0,"x_max":0,"o":"m 236 -183 b 210 -192 226 -189 218 -192 b 167 -142 188 -192 167 -171 b 225 0 167 -94 183 -58 l 236 0 l 236 778 l 97 778 l 97 0 l 150 0 b 53 -169 86 -46 53 -115 b 171 -301 53 -242 107 -301 b 236 -285 192 -301 214 -299 z m 79 974 b 167 894 79 929 118 894 b 256 974 215 894 256 929 b 167 1054 256 1018 215 1054 b 79 974 118 1054 79 1018 z "},"Į":{"ha":333,"x_min":0,"x_max":0,"o":"m 236 -183 b 210 -192 226 -189 218 -192 b 167 -142 188 -192 167 -171 b 225 0 167 -94 183 -58 l 236 0 l 236 1021 l 97 1021 l 97 0 l 150 0 b 53 -169 86 -46 53 -115 b 171 -301 53 -242 107 -301 b 236 -285 192 -301 214 -299 z "},"ę":{"ha":882,"x_min":0,"x_max":0,"o":"m 458 131 b 197 340 333 131 222 221 l 664 340 b 828 504 754 340 828 414 b 458 782 828 660 654 782 b 54 390 242 782 54 606 b 458 -4 54 172 242 -4 b 579 8 504 -4 544 1 b 492 -160 536 -36 494 -90 l 492 -169 b 610 -301 492 -242 546 -301 b 675 -285 631 -301 653 -299 l 675 -183 b 649 -192 665 -189 657 -192 b 606 -142 626 -192 606 -171 b 792 118 606 -37 701 36 l 704 228 b 458 131 704 231 633 131 z m 458 647 b 696 504 600 647 696 569 b 664 469 696 486 682 469 l 207 469 b 458 647 243 571 344 647 z "},"Ę":{"ha":944,"x_min":0,"x_max":0,"o":"m 222 132 l 222 463 l 708 463 l 708 594 l 222 594 l 222 889 l 819 889 l 819 1021 l 83 1021 l 83 0 l 786 0 b 678 -169 721 -46 678 -115 b 796 -301 678 -242 732 -301 b 861 -285 817 -301 839 -299 l 861 -183 b 835 -192 851 -189 843 -192 b 792 -142 813 -192 792 -171 b 861 0 792 -94 819 -57 l 861 132 z "},"č":{"ha":807,"x_min":0,"x_max":0,"o":"m 438 643 b 606 610 511 643 569 625 l 611 557 l 726 557 l 726 701 b 438 782 722 704 614 782 b 40 390 221 782 40 619 b 438 -4 40 158 221 -4 b 771 118 649 -4 764 111 l 683 228 b 438 135 683 231 613 135 b 179 390 296 135 179 235 b 438 643 179 543 296 643 z m 388 863 l 490 863 l 615 1021 l 517 1021 l 454 942 l 424 942 l 361 1021 l 263 1021 z "},"Č":{"ha":1032,"x_min":0,"x_max":0,"o":"m 813 758 l 935 758 l 935 926 b 588 1026 824 996 710 1026 b 60 511 304 1026 60 796 b 588 -4 60 226 304 -4 b 988 176 744 -4 889 67 l 889 275 b 588 135 819 192 713 135 b 199 511 396 135 199 288 b 588 888 199 735 396 888 b 796 847 665 888 736 876 z m 519 1106 l 622 1106 l 747 1264 l 649 1264 l 586 1185 l 556 1185 l 493 1264 l 394 1264 z "},"ź":{"ha":817,"x_min":0,"x_max":0,"o":"m 69 0 l 747 0 l 747 139 l 208 139 l 208 158 l 747 575 l 747 778 l 69 778 l 69 653 l 608 653 l 608 626 l 69 208 z m 558 1021 l 431 1021 l 342 863 l 432 863 z "},"Ź":{"ha":917,"x_min":0,"x_max":0,"o":"m 69 0 l 847 0 l 847 125 l 194 125 l 194 151 l 847 826 l 847 1021 l 69 1021 l 69 896 l 722 896 l 722 868 l 69 193 z m 608 1264 l 481 1264 l 392 1106 l 482 1106 z "},"ń":{"ha":844,"x_min":0,"x_max":0,"o":"m 208 0 l 208 526 b 486 650 303 601 389 650 b 636 494 583 650 636 576 l 636 0 l 775 0 l 775 486 b 476 782 775 685 650 782 b 203 660 386 782 290 726 l 181 778 l 69 778 l 69 0 z m 558 1021 l 431 1021 l 342 863 l 432 863 z "},"Ń":{"ha":1022,"x_min":0,"x_max":0,"o":"m 800 118 l 768 118 l 344 1021 l 83 1021 l 83 0 l 222 0 l 222 903 l 254 903 l 678 0 l 939 0 l 939 1021 l 800 1021 z m 647 1264 l 519 1264 l 431 1106 l 521 1106 z "},"Ų":{"ha":1072,"x_min":0,"x_max":0,"o":"m 736 -183 b 710 -192 726 -189 718 -192 b 667 -142 688 -192 667 -171 b 807 76 667 -50 740 28 b 989 460 913 154 989 281 l 989 1021 l 850 1021 l 850 460 b 535 135 850 250 721 135 b 222 460 350 135 222 250 l 222 1021 l 83 1021 l 83 460 b 536 -4 83 143 306 -4 b 672 15 582 -4 628 1 b 553 -169 593 -32 553 -110 b 671 -301 553 -242 607 -301 b 736 -285 692 -301 714 -299 z "},"ų":{"ha":872,"x_min":0,"x_max":0,"o":"m 778 -183 b 751 -192 768 -189 760 -192 b 708 -142 729 -192 708 -171 b 767 0 708 -94 725 -58 l 803 0 l 803 778 l 664 778 l 664 263 b 383 128 565 181 483 128 b 208 264 269 128 208 174 l 208 778 l 69 778 l 69 264 b 383 -4 69 89 192 -4 b 667 126 476 -4 576 57 l 692 0 b 594 -169 628 -46 594 -115 b 713 -301 594 -242 649 -301 b 778 -285 733 -301 756 -299 z "},"Ś":{"ha":1022,"x_min":0,"x_max":0,"o":"m 508 888 b 756 842 590 888 683 875 l 772 758 l 894 758 l 894 926 b 508 1026 783 996 631 1026 b 85 746 338 1026 85 944 b 529 469 85 515 324 469 b 799 307 685 469 799 431 b 499 135 799 222 685 135 b 128 278 342 135 218 189 l 46 157 b 500 -4 160 57 308 -4 b 953 307 717 -4 953 115 b 522 613 953 553 733 613 b 239 746 369 613 239 639 b 508 888 239 824 369 888 z m 647 1264 l 519 1264 l 431 1106 l 521 1106 z "},"ś":{"ha":846,"x_min":0,"x_max":0,"o":"m 424 -4 b 785 240 631 -4 785 93 b 424 469 785 401 628 469 b 224 557 265 469 224 508 b 424 646 224 611 314 646 b 608 610 504 646 567 626 l 626 564 l 733 564 l 733 701 b 424 782 729 704 600 782 b 85 557 228 782 85 682 b 424 333 85 415 193 333 b 646 240 615 333 646 292 b 424 132 646 163 519 132 b 143 228 249 132 143 231 l 56 118 b 424 -4 63 113 213 -4 z m 572 1021 l 444 1021 l 356 863 l 446 863 z "},"Ō":{"ha":1176,"x_min":0,"x_max":0,"o":"m 425 1225 l 425 1142 l 750 1142 l 750 1225 z m 588 886 b 978 511 775 886 978 739 b 588 135 978 321 813 135 b 199 511 396 135 199 288 b 588 886 199 701 365 886 z m 588 1025 b 60 511 304 1025 60 794 b 588 -4 60 226 304 -4 b 1117 511 872 -4 1117 226 b 588 1025 1117 794 872 1025 z "},"Ī":{"ha":333,"x_min":0,"x_max":0,"o":"m 4 1225 l 4 1142 l 329 1142 l 329 1225 z m 236 1021 l 97 1021 l 97 0 l 236 0 z "},"ī":{"ha":333,"x_min":0,"x_max":0,"o":"m 4 978 l 4 894 l 329 894 l 329 978 z m 236 778 l 97 778 l 97 0 l 236 0 z "},"Ā":{"ha":1111,"x_min":0,"x_max":0,"o":"m 393 1225 l 393 1142 l 718 1142 l 718 1225 z m 306 279 l 806 279 l 889 0 l 1028 0 l 722 1021 l 389 1021 l 83 0 l 222 0 z m 490 896 l 621 896 l 768 404 l 343 404 z "},"Ē":{"ha":944,"x_min":0,"x_max":0,"o":"m 299 1225 l 299 1142 l 624 1142 l 624 1225 z m 222 132 l 222 463 l 708 463 l 708 594 l 222 594 l 222 889 l 819 889 l 819 1021 l 83 1021 l 83 0 l 861 0 l 861 132 z "},"ē":{"ha":882,"x_min":0,"x_max":0,"o":"m 300 978 l 300 894 l 625 894 l 625 978 z m 458 131 b 197 340 333 131 222 221 l 664 340 b 828 504 754 340 828 414 b 458 782 828 660 654 782 b 54 390 242 782 54 606 b 458 -4 54 172 242 -4 b 792 118 669 -4 785 111 l 704 228 b 458 131 704 231 633 131 z m 458 647 b 696 504 600 647 696 569 b 664 469 696 486 682 469 l 207 469 b 458 647 243 571 344 647 z "},"ā":{"ha":844,"x_min":0,"x_max":0,"o":"m 282 978 l 282 894 l 607 894 l 607 978 z m 319 -4 b 642 115 460 -4 565 54 l 664 0 l 775 0 l 775 465 b 444 782 775 682 636 782 b 138 696 308 782 238 746 l 138 557 l 249 557 l 257 613 b 444 650 313 642 360 650 b 633 497 546 650 618 608 l 319 497 b 69 247 182 497 69 385 b 319 -4 69 108 182 -4 z m 319 131 b 204 247 256 131 204 183 b 319 363 204 311 256 363 l 636 363 l 636 256 b 319 131 561 183 471 131 z "},"ō":{"ha":915,"x_min":0,"x_max":0,"o":"m 294 978 l 294 894 l 619 894 l 619 978 z m 458 782 b 54 390 242 782 54 606 b 458 -4 54 172 242 -4 b 861 390 674 -4 861 172 b 458 782 861 606 674 782 z m 458 643 b 722 390 600 643 722 529 b 458 135 722 249 600 135 b 193 390 317 135 193 249 b 458 643 193 529 317 643 z "},"ū":{"ha":872,"x_min":0,"x_max":0,"o":"m 282 978 l 282 894 l 607 894 l 607 978 z m 208 778 l 69 778 l 69 264 b 383 -4 69 89 192 -4 b 667 126 476 -4 576 57 l 692 0 l 803 0 l 803 778 l 664 778 l 664 263 b 383 128 565 181 483 128 b 208 264 269 128 208 174 z "},"Ū":{"ha":1072,"x_min":0,"x_max":0,"o":"m 374 1225 l 374 1142 l 699 1142 l 699 1225 z m 222 1021 l 83 1021 l 83 460 b 536 -4 83 143 306 -4 b 989 460 767 -4 989 143 l 989 1021 l 850 1021 l 850 460 b 535 135 850 250 721 135 b 222 460 350 135 222 250 z "},"˙":{"ha":346,"x_min":0,"x_max":0,"o":"m 107 960 b 172 894 107 924 136 894 b 239 960 208 894 239 924 b 172 1026 239 996 208 1026 b 107 960 136 1026 107 996 z "},"ż":{"ha":817,"x_min":0,"x_max":0,"o":"m 69 0 l 747 0 l 747 139 l 208 139 l 208 158 l 747 575 l 747 778 l 69 778 l 69 653 l 608 653 l 608 626 l 69 208 z m 342 960 b 407 894 342 924 371 894 b 474 960 443 894 474 924 b 407 1026 474 996 443 1026 b 342 960 371 1026 342 996 z "},"Ż":{"ha":917,"x_min":0,"x_max":0,"o":"m 69 0 l 847 0 l 847 125 l 194 125 l 194 151 l 847 826 l 847 1021 l 69 1021 l 69 896 l 722 896 l 722 868 l 69 193 z m 392 1203 b 457 1138 392 1167 421 1138 b 524 1203 493 1138 524 1167 b 457 1269 524 1239 493 1269 b 392 1203 421 1269 392 1239 z "},"ė":{"ha":882,"x_min":0,"x_max":0,"o":"m 399 960 b 464 894 399 924 428 894 b 531 960 500 894 531 924 b 464 1026 531 996 500 1026 b 399 960 428 1026 399 996 z m 458 131 b 197 340 333 131 222 221 l 664 340 b 828 504 754 340 828 414 b 458 782 828 660 654 782 b 54 390 242 782 54 606 b 458 -4 54 172 242 -4 b 792 118 669 -4 785 111 l 704 228 b 458 131 704 231 633 131 z m 458 647 b 696 504 600 647 696 569 b 664 469 696 486 682 469 l 207 469 b 458 647 243 571 344 647 z "},"Ė":{"ha":944,"x_min":0,"x_max":0,"o":"m 222 132 l 222 463 l 708 463 l 708 594 l 222 594 l 222 889 l 819 889 l 819 1021 l 83 1021 l 83 0 l 861 0 l 861 132 z m 406 1203 b 471 1138 406 1167 435 1138 b 538 1203 507 1138 538 1167 b 471 1269 538 1239 507 1269 b 406 1203 435 1269 406 1239 z "},"ã":{"ha":844,"x_min":0,"x_max":0,"o":"m 319 -4 b 642 115 460 -4 565 54 l 664 0 l 775 0 l 775 465 b 444 782 775 682 636 782 b 138 696 308 782 238 746 l 138 557 l 249 557 l 257 613 b 444 650 313 642 360 650 b 633 497 546 650 618 608 l 319 497 b 69 247 182 497 69 385 b 319 -4 69 108 182 -4 z m 319 131 b 204 247 256 131 204 183 b 319 363 204 311 256 363 l 636 363 l 636 256 b 319 131 561 183 471 131 z m 519 863 b 661 1021 600 863 661 931 l 572 1021 b 519 953 572 990 550 953 b 367 1021 479 953 453 1021 b 225 863 286 1021 225 951 l 314 863 b 367 931 314 896 336 931 b 519 863 406 931 433 863 z "},"Ã":{"ha":1111,"x_min":0,"x_max":0,"o":"m 306 279 l 806 279 l 889 0 l 1028 0 l 722 1021 l 389 1021 l 83 0 l 222 0 z m 490 896 l 621 896 l 768 404 l 343 404 z m 632 1106 b 774 1264 713 1106 774 1174 l 685 1264 b 632 1196 685 1233 663 1196 b 479 1264 592 1196 565 1264 b 338 1106 399 1264 338 1194 l 426 1106 b 479 1174 426 1139 449 1174 b 632 1106 518 1174 546 1106 z "},"Ñ":{"ha":1022,"x_min":0,"x_max":0,"o":"m 800 118 l 768 118 l 344 1021 l 83 1021 l 83 0 l 222 0 l 222 903 l 254 903 l 678 0 l 939 0 l 939 1021 l 800 1021 z m 588 1106 b 729 1264 668 1106 729 1174 l 640 1264 b 588 1196 640 1233 618 1196 b 435 1264 547 1196 521 1264 b 293 1106 354 1264 293 1194 l 382 1106 b 435 1174 382 1139 404 1174 b 588 1106 474 1174 501 1106 z "},"ñ":{"ha":844,"x_min":0,"x_max":0,"o":"m 208 0 l 208 526 b 486 650 303 601 389 650 b 636 494 583 650 636 576 l 636 0 l 775 0 l 775 486 b 476 782 775 685 650 782 b 203 660 386 782 290 726 l 181 778 l 69 778 l 69 0 z m 499 863 b 640 1021 579 863 640 931 l 551 1021 b 499 953 551 990 529 953 b 346 1021 458 953 432 1021 b 204 863 265 1021 204 951 l 293 863 b 346 931 293 896 315 931 b 499 863 385 931 413 863 z "},"№":{"ha":1526,"x_min":0,"x_max":0,"o":"m 83 0 l 306 0 l 306 875 l 338 875 l 678 0 l 943 0 l 943 875 l 1026 875 l 1026 993 l 804 993 l 804 118 l 772 118 l 432 993 l 167 993 l 167 118 l 83 118 z m 1249 782 b 1054 554 1119 782 1054 683 b 1249 329 1054 426 1119 329 b 1443 554 1376 329 1443 426 b 1249 782 1443 683 1376 782 z m 1249 668 b 1329 554 1292 668 1329 617 b 1249 443 1329 494 1292 443 b 1168 554 1206 443 1168 494 b 1249 668 1168 617 1206 668 z m 1054 118 l 1443 118 l 1443 232 l 1054 232 z "},"₽":{"ha":1019,"x_min":0,"x_max":0,"o":"m 83 444 l 83 314 l 194 314 l 194 229 l 83 229 l 83 132 l 194 132 l 194 0 l 333 0 l 333 132 l 721 132 l 721 229 l 333 229 l 333 313 l 582 313 b 936 667 778 313 936 472 b 582 1021 936 863 778 1021 l 194 1021 l 194 444 z m 582 889 b 797 667 697 889 797 783 b 582 444 797 551 696 444 l 333 444 l 333 889 z "},"Џ":{"ha":986,"x_min":0,"x_max":0,"o":"m 563 -208 l 563 0 l 903 0 l 903 1021 l 764 1021 l 764 125 l 222 125 l 222 1021 l 83 1021 l 83 0 l 424 0 l 424 -208 z "},"џ":{"ha":817,"x_min":0,"x_max":0,"o":"m 747 778 l 608 778 l 608 129 l 208 129 l 208 778 l 69 778 l 69 0 l 339 0 l 339 -194 l 478 -194 l 478 0 l 747 0 z "},"Ћ":{"ha":1254,"x_min":0,"x_max":0,"o":"m 847 553 b 997 397 944 553 997 479 l 997 0 l 1136 0 l 1136 389 b 838 685 1136 588 1011 685 b 569 567 749 685 656 632 l 569 896 l 986 896 l 986 1021 l 69 1021 l 69 896 l 431 896 l 431 0 l 569 0 l 569 429 b 847 553 664 504 750 553 z "},"Ђ":{"ha":1206,"x_min":0,"x_max":0,"o":"m 754 0 l 838 0 b 1136 347 1004 0 1136 107 b 838 685 1136 615 1007 685 b 569 567 749 685 656 632 l 569 896 l 986 896 l 986 1021 l 69 1021 l 69 896 l 431 896 l 431 0 l 569 0 l 569 429 b 839 553 660 504 746 553 b 997 353 919 553 997 483 b 838 132 997 208 947 132 l 754 132 z "},"ћ":{"ha":983,"x_min":0,"x_max":0,"o":"m 83 931 l 83 839 l 208 839 l 208 0 l 347 0 l 347 471 b 625 594 442 546 528 594 b 775 439 722 594 775 521 l 775 0 l 914 0 l 914 431 b 615 726 914 629 789 726 b 347 608 526 726 433 674 l 347 839 l 671 839 l 671 931 l 347 931 l 347 1021 l 208 1021 l 208 931 z "},"ђ":{"ha":942,"x_min":0,"x_max":0,"o":"m 574 -301 b 872 -6 747 -301 872 -204 l 872 431 b 574 726 872 629 747 726 b 306 608 485 726 392 674 l 306 839 l 629 839 l 629 931 l 306 931 l 306 1021 l 167 1021 l 167 931 l 42 931 l 42 839 l 167 839 l 167 0 l 306 0 l 306 471 b 583 594 400 546 486 594 b 733 439 681 594 733 521 l 733 -21 b 574 -176 733 -103 671 -176 z "},"ð":{"ha":897,"x_min":0,"x_max":0,"o":"m 525 989 b 343 1088 457 1042 390 1075 l 279 1025 b 429 933 329 1004 382 972 l 231 818 l 268 753 l 489 881 b 650 635 563 808 622 721 b 417 717 599 682 507 717 b 39 349 171 717 39 557 b 426 -4 39 131 211 -4 b 811 467 635 -4 811 136 b 586 938 811 665 704 828 l 731 1021 l 693 1088 z m 426 135 b 178 349 286 136 178 207 b 417 590 178 494 272 590 b 674 433 519 590 638 531 b 426 135 674 243 563 135 z "},"Ð":{"ha":1060,"x_min":0,"x_max":0,"o":"m 471 0 b 1000 511 756 0 1000 226 b 471 1021 1000 794 756 1021 l 111 1021 l 111 581 l 21 581 l 21 469 l 111 469 l 111 0 z m 250 581 l 250 886 l 471 886 b 861 511 658 886 861 739 b 471 135 861 321 696 135 l 250 135 l 250 469 l 483 469 l 483 581 z "},"Æ":{"ha":1649,"x_min":0,"x_max":0,"o":"m 360 463 l 788 463 l 788 0 l 1565 0 l 1565 132 l 926 132 l 926 463 l 1413 463 l 1413 594 l 926 594 l 926 889 l 1524 889 l 1524 1021 l 389 1021 l 83 0 l 222 0 z m 788 594 l 400 594 l 490 896 l 788 896 z "},"æ":{"ha":1507,"x_min":0,"x_max":0,"o":"m 1083 131 b 822 340 958 131 847 221 l 822 353 l 1289 353 b 1453 518 1379 353 1453 428 b 1083 782 1453 660 1279 782 b 781 647 965 782 856 729 b 458 782 724 739 583 782 b 138 696 322 782 238 746 l 138 557 l 249 557 l 257 613 b 458 651 313 642 374 651 b 685 483 560 651 669 594 l 319 483 b 69 247 182 483 69 385 b 347 -4 69 108 210 -4 b 756 161 528 -4 653 61 b 1083 -4 829 61 951 -4 b 1417 118 1294 -4 1410 111 l 1329 228 b 1083 131 1329 231 1258 131 z m 347 131 b 204 247 283 131 204 183 b 319 353 204 311 256 353 l 688 353 l 688 256 b 347 131 613 183 499 131 z m 836 483 b 1083 647 876 578 974 647 b 1321 518 1225 647 1321 569 b 1289 483 1321 500 1307 483 z "},"œ":{"ha":1549,"x_min":0,"x_max":0,"o":"m 1125 131 b 865 340 1000 131 890 219 l 1331 340 b 1494 504 1421 340 1494 414 b 1125 782 1494 660 1321 782 b 790 604 988 782 863 711 l 789 610 b 458 782 715 713 592 782 b 54 390 242 782 54 606 b 458 -4 54 172 242 -4 b 789 169 592 -4 715 64 l 790 174 b 1125 -4 864 67 988 -4 b 1458 118 1336 -4 1451 111 l 1371 228 b 1125 131 1371 231 1300 131 z m 458 643 b 722 390 600 644 722 528 b 458 135 722 249 600 135 b 193 390 317 135 193 249 b 458 643 193 529 317 643 z m 1125 647 b 1363 504 1267 647 1363 569 b 1331 469 1363 486 1349 469 l 874 469 b 1125 647 910 571 1011 647 z "},"Œ":{"ha":1760,"x_min":0,"x_max":0,"o":"m 1038 132 l 1038 463 l 1524 463 l 1524 594 l 1038 594 l 1038 889 l 1635 889 l 1635 1021 l 899 1021 l 899 904 b 588 1025 819 981 697 1025 b 60 511 304 1025 60 794 b 588 -4 60 226 304 -4 b 899 115 697 -4 819 39 l 899 0 l 1676 0 l 1676 132 z m 588 886 b 899 736 701 886 822 831 l 899 288 b 588 135 829 197 718 135 b 199 511 396 135 199 288 b 588 886 199 701 365 886 z "},"§":{"ha":1011,"x_min":0,"x_max":0,"o":"m 165 -206 b 481 -306 276 -275 358 -306 b 835 -39 651 -306 835 -237 b 767 125 835 35 808 88 b 904 363 851 175 904 254 b 543 654 904 567 740 654 b 329 760 418 654 329 681 b 529 888 329 838 404 888 b 775 801 597 888 676 875 l 844 926 b 529 1026 733 996 651 1026 b 175 760 358 1026 175 958 b 242 596 175 686 200 633 b 106 358 158 546 106 465 b 467 67 106 154 269 67 b 681 -39 592 67 681 40 b 481 -167 681 -117 606 -167 b 235 -81 413 -167 333 -154 z m 550 511 b 750 363 692 511 750 444 b 551 204 750 282 711 213 b 460 210 521 208 490 210 b 260 358 318 210 260 276 b 458 515 260 438 299 507 b 550 511 489 513 519 511 z "},"Ў":{"ha":1028,"x_min":0,"x_max":0,"o":"m 635 1263 b 511 1175 631 1201 585 1175 b 386 1263 438 1175 390 1203 l 292 1263 b 511 1092 292 1158 386 1092 b 731 1263 636 1092 731 1158 z m 504 -4 b 685 121 579 -4 661 43 l 956 1021 l 817 1021 l 640 432 l 431 432 b 369 482 404 432 378 456 l 208 1021 l 69 1021 l 243 446 b 422 307 267 369 325 307 l 603 307 l 567 189 b 504 135 557 156 526 135 l 322 135 l 322 24 l 449 -4 z "},"˘":{"ha":661,"x_min":0,"x_max":0,"o":"m 454 1263 b 331 1175 450 1201 404 1175 b 206 1263 257 1175 210 1203 l 111 1263 b 331 1092 111 1158 206 1092 b 550 1263 456 1092 550 1158 z "},"ў":{"ha":826,"x_min":0,"x_max":0,"o":"m 532 1054 b 422 964 532 1003 503 964 b 311 1054 342 964 311 1003 l 196 1054 b 422 864 196 950 283 864 b 649 1054 561 864 649 950 z m 278 0 l 407 0 l 375 -110 b 315 -162 368 -144 338 -162 l 233 -162 l 233 -287 l 315 -301 b 496 -176 390 -301 472 -257 l 781 778 l 642 778 l 450 139 l 376 139 l 185 778 l 46 778 z "},"¯":{"ha":622,"x_min":0,"x_max":0,"o":"m 93 1225 l 93 1142 l 529 1142 l 529 1225 z "},"Ң":{"ha":1125,"x_min":0,"x_max":0,"o":"m 1042 -208 l 1042 125 l 944 125 l 944 1021 l 806 1021 l 806 588 l 222 588 l 222 1021 l 83 1021 l 83 0 l 222 0 l 222 463 l 806 463 l 806 0 l 903 0 l 917 -208 z "},"¼":{"ha":1199,"x_min":0,"x_max":0,"o":"m 61 824 b 175 846 106 824 146 833 l 175 500 l 276 500 l 276 1021 l 175 1021 l 175 1001 b 61 925 175 954 129 925 z m 1138 117 l 1138 217 l 1101 217 l 1101 521 l 1008 521 l 722 210 l 722 117 l 1001 117 l 1001 0 l 1101 0 l 1101 117 z m 860 217 l 1001 382 l 1001 217 z m 193 0 l 340 0 l 979 1021 l 832 1021 z "},"½":{"ha":1185,"x_min":0,"x_max":0,"o":"m 1124 101 l 857 101 b 981 190 857 124 911 154 b 1124 358 1051 226 1124 272 b 931 522 1124 469 1032 522 b 721 332 832 522 725 456 l 822 332 b 931 421 822 390 886 421 b 1022 358 972 421 1022 410 b 907 263 1022 318 958 290 b 724 50 738 171 724 124 l 724 0 l 1124 0 z m 131 824 b 244 846 175 824 215 833 l 244 500 l 346 500 l 346 1021 l 244 1021 l 244 1001 b 131 925 244 954 199 925 z m 193 0 l 340 0 l 979 1021 l 832 1021 z "},"¾":{"ha":1201,"x_min":0,"x_max":0,"o":"m 1138 117 l 1138 217 l 1101 217 l 1101 521 l 1008 521 l 722 210 l 722 117 l 1001 117 l 1001 0 l 1101 0 l 1101 117 z m 860 217 l 1001 382 l 1001 217 z m 265 506 b 449 685 361 506 449 576 b 331 850 449 782 406 824 l 428 929 l 428 1021 l 74 1021 l 74 929 l 294 929 l 217 858 l 217 767 b 349 685 292 767 349 767 b 265 607 349 628 303 607 b 163 694 217 607 169 632 l 64 694 b 265 506 64 579 164 506 z m 193 0 l 340 0 l 979 1021 l 832 1021 z "},"¹":{"ha":476,"x_min":0,"x_max":0,"o":"m 131 824 b 244 846 175 824 215 833 l 244 500 l 346 500 l 346 1021 l 244 1021 l 244 1001 b 131 925 244 954 199 925 z "},"³":{"ha":593,"x_min":0,"x_max":0,"o":"m 306 506 b 489 685 401 506 489 576 b 371 850 489 782 446 824 l 468 929 l 468 1021 l 128 1021 l 128 929 l 335 929 l 257 858 l 257 767 b 389 685 332 767 389 767 b 306 607 389 628 343 607 b 203 694 257 607 210 632 l 104 694 b 306 506 104 579 204 506 z "},"²":{"ha":583,"x_min":0,"x_max":0,"o":"m 479 607 l 226 607 b 479 864 226 661 479 699 b 300 1028 479 975 401 1028 b 104 838 201 1028 108 961 l 206 838 b 300 926 206 896 256 926 b 378 864 342 926 378 915 b 269 768 378 825 324 794 b 107 556 158 711 107 653 l 107 506 l 479 506 z "},"º":{"ha":564,"x_min":0,"x_max":0,"o":"m 282 1025 b 69 764 139 1025 69 908 b 282 503 69 621 139 503 b 494 764 425 503 494 621 b 282 1025 494 908 425 1025 z m 282 936 b 396 764 358 936 396 868 b 282 592 396 661 358 592 b 168 764 206 592 168 661 b 282 936 168 868 206 936 z "},"ß":{"ha":971,"x_min":0,"x_max":0,"o":"m 442 0 l 599 0 b 890 292 760 0 890 131 b 742 538 890 394 822 504 b 849 747 799 569 849 665 b 503 1025 849 901 726 1025 b 157 747 279 1025 157 901 l 157 713 l 35 713 l 35 588 l 157 588 l 157 0 l 296 0 l 296 747 b 503 900 296 825 357 900 b 710 747 649 900 710 825 b 572 588 710 672 649 588 l 442 588 l 442 463 l 599 463 b 751 292 683 463 751 376 b 599 125 751 207 683 125 l 442 125 z "},"ª":{"ha":556,"x_min":0,"x_max":0,"o":"m 69 660 b 250 503 69 575 135 503 b 392 576 308 503 356 538 l 410 506 l 486 506 l 486 832 b 292 1025 486 964 421 1025 b 107 968 206 1025 164 1001 l 107 875 l 183 875 l 189 910 b 292 938 222 926 238 938 b 392 833 356 938 392 904 l 392 803 b 250 825 364 811 306 825 b 69 660 131 825 69 744 z m 167 660 b 246 739 167 707 201 739 b 392 717 292 739 347 732 l 392 672 b 253 590 363 628 299 590 b 167 660 203 590 167 614 z "},"ŕ":{"ha":753,"x_min":0,"x_max":0,"o":"m 485 1021 l 357 1021 l 268 863 l 358 863 z m 208 0 l 208 526 b 486 650 297 601 389 650 b 551 621 517 650 538 639 l 568 535 l 683 535 l 683 699 b 486 782 631 763 578 782 b 201 664 397 782 281 728 l 181 778 l 69 778 l 69 0 z "},"Ŕ":{"ha":978,"x_min":0,"x_max":0,"o":"m 881 135 l 783 135 b 725 189 761 135 740 154 l 660 333 b 894 667 796 382 894 514 b 540 1021 894 863 736 1021 l 83 1021 l 83 0 l 222 0 l 222 313 l 481 313 b 539 257 503 311 525 292 l 603 121 b 783 -4 640 40 708 -4 l 881 10 z m 540 889 b 756 667 656 889 756 783 b 540 444 756 551 654 444 l 222 444 l 222 889 z m 597 1264 l 469 1264 l 381 1106 l 471 1106 z "},"Ă":{"ha":1111,"x_min":0,"x_max":0,"o":"m 306 279 l 806 279 l 889 0 l 1028 0 l 722 1021 l 389 1021 l 83 0 l 222 0 z m 490 896 l 621 896 l 768 404 l 343 404 z m 679 1263 b 556 1175 675 1201 629 1175 b 431 1263 482 1175 435 1203 l 336 1263 b 556 1092 336 1158 431 1092 b 775 1263 681 1092 775 1158 z "},"ů":{"ha":872,"x_min":0,"x_max":0,"o":"m 208 778 l 69 778 l 69 264 b 383 -4 69 89 192 -4 b 667 126 476 -4 576 57 l 692 0 l 803 0 l 803 778 l 664 778 l 664 263 b 383 128 565 181 483 128 b 208 264 269 128 208 174 z m 324 954 b 436 842 324 893 375 842 b 549 954 497 842 549 893 b 436 1067 549 1015 497 1067 b 324 954 375 1067 324 1015 z m 389 954 b 436 1001 389 981 410 1001 b 483 954 463 1001 483 981 b 436 907 483 928 463 907 b 389 954 410 907 389 928 z "},"Ů":{"ha":1072,"x_min":0,"x_max":0,"o":"m 222 1021 l 83 1021 l 83 460 b 536 -4 83 143 306 -4 b 989 460 767 -4 989 143 l 989 1021 l 850 1021 l 850 460 b 535 135 850 250 721 135 b 222 460 350 135 222 250 z m 424 1197 b 536 1085 424 1136 475 1085 b 649 1197 597 1085 649 1136 b 536 1310 649 1258 597 1310 b 424 1197 475 1310 424 1258 z m 489 1197 b 536 1244 489 1224 510 1244 b 583 1197 563 1244 583 1224 b 536 1150 583 1171 563 1150 b 489 1197 510 1150 489 1171 z "},"ř":{"ha":753,"x_min":0,"x_max":0,"o":"m 311 863 l 414 863 l 539 1021 l 440 1021 l 378 942 l 347 942 l 285 1021 l 186 1021 z m 208 0 l 208 526 b 486 650 297 601 389 650 b 551 621 517 650 538 639 l 568 535 l 683 535 l 683 699 b 486 782 631 763 578 782 b 201 664 397 782 281 728 l 181 778 l 69 778 l 69 0 z "},"Ř":{"ha":978,"x_min":0,"x_max":0,"o":"m 881 135 l 783 135 b 725 189 761 135 740 154 l 660 333 b 894 667 796 382 894 514 b 540 1021 894 863 736 1021 l 83 1021 l 83 0 l 222 0 l 222 313 l 481 313 b 539 257 503 311 525 292 l 603 121 b 783 -4 640 40 708 -4 l 881 10 z m 540 889 b 756 667 656 889 756 783 b 540 444 756 551 654 444 l 222 444 l 222 889 z m 382 1106 l 485 1106 l 610 1264 l 511 1264 l 449 1185 l 418 1185 l 356 1264 l 257 1264 z "},"ň":{"ha":844,"x_min":0,"x_max":0,"o":"m 208 0 l 208 526 b 486 650 303 601 389 650 b 636 494 583 650 636 576 l 636 0 l 775 0 l 775 486 b 476 782 775 685 650 782 b 203 660 386 782 290 726 l 181 778 l 69 778 l 69 0 z m 371 863 l 474 863 l 599 1021 l 500 1021 l 438 942 l 407 942 l 344 1021 l 246 1021 z "},"Ň":{"ha":1022,"x_min":0,"x_max":0,"o":"m 800 118 l 768 118 l 344 1021 l 83 1021 l 83 0 l 222 0 l 222 903 l 254 903 l 678 0 l 939 0 l 939 1021 l 800 1021 z m 460 1106 l 563 1106 l 688 1264 l 589 1264 l 526 1185 l 496 1185 l 433 1264 l 335 1264 z "},"Ť":{"ha":1000,"x_min":0,"x_max":0,"o":"m 569 896 l 931 896 l 931 1021 l 69 1021 l 69 896 l 431 896 l 431 0 l 569 0 z m 449 1106 l 551 1106 l 676 1264 l 578 1264 l 515 1185 l 485 1185 l 422 1264 l 324 1264 z "},"ě":{"ha":882,"x_min":0,"x_max":0,"o":"m 413 863 l 515 863 l 640 1021 l 542 1021 l 479 942 l 449 942 l 386 1021 l 288 1021 z m 458 131 b 197 340 333 131 222 221 l 664 340 b 828 504 754 340 828 414 b 458 782 828 660 654 782 b 54 390 242 782 54 606 b 458 -4 54 172 242 -4 b 792 118 669 -4 785 111 l 704 228 b 458 131 704 231 633 131 z m 458 647 b 696 504 600 647 696 569 b 664 469 696 486 682 469 l 207 469 b 458 647 243 571 344 647 z "},"Ě":{"ha":944,"x_min":0,"x_max":0,"o":"m 222 132 l 222 463 l 708 463 l 708 594 l 222 594 l 222 889 l 819 889 l 819 1021 l 83 1021 l 83 0 l 861 0 l 861 132 z m 421 1106 l 524 1106 l 649 1264 l 550 1264 l 488 1185 l 457 1185 l 394 1264 l 296 1264 z "},"ă":{"ha":844,"x_min":0,"x_max":0,"o":"m 319 -4 b 642 115 460 -4 565 54 l 664 0 l 775 0 l 775 465 b 444 782 775 682 636 782 b 138 696 308 782 238 746 l 138 557 l 249 557 l 257 613 b 444 650 313 642 360 650 b 633 497 546 650 618 608 l 319 497 b 69 247 182 497 69 385 b 319 -4 69 108 182 -4 z m 319 131 b 204 247 256 131 204 183 b 319 363 204 311 256 363 l 636 363 l 636 256 b 319 131 561 183 471 131 z m 560 1054 b 436 967 556 993 510 967 b 311 1054 363 967 315 994 l 217 1054 b 436 883 217 950 311 883 b 656 1054 561 883 656 950 z "},"˝":{"ha":531,"x_min":0,"x_max":0,"o":"m 251 1021 l 124 1021 l 49 863 l 135 863 z m 482 1021 l 354 1021 l 279 863 l 365 863 z "},"ű":{"ha":872,"x_min":0,"x_max":0,"o":"m 208 778 l 69 778 l 69 264 b 383 -4 69 89 192 -4 b 667 126 476 -4 576 57 l 692 0 l 803 0 l 803 778 l 664 778 l 664 263 b 383 128 565 181 483 128 b 208 264 269 128 208 174 z m 464 1021 l 336 1021 l 261 863 l 347 863 z m 694 1021 l 567 1021 l 492 863 l 578 863 z "},"Ű":{"ha":1072,"x_min":0,"x_max":0,"o":"m 222 1021 l 83 1021 l 83 460 b 536 -4 83 143 306 -4 b 989 460 767 -4 989 143 l 989 1021 l 850 1021 l 850 460 b 535 135 850 250 721 135 b 222 460 350 135 222 250 z m 564 1264 l 436 1264 l 361 1106 l 447 1106 z m 794 1264 l 667 1264 l 592 1106 l 678 1106 z "},"Ő":{"ha":1176,"x_min":0,"x_max":0,"o":"m 588 886 b 978 511 775 886 978 739 b 588 135 978 321 813 135 b 199 511 396 135 199 288 b 588 886 199 701 365 886 z m 588 1025 b 60 511 304 1025 60 794 b 588 -4 60 226 304 -4 b 1117 511 872 -4 1117 226 b 588 1025 1117 794 872 1025 z m 615 1264 l 488 1264 l 413 1106 l 499 1106 z m 846 1264 l 718 1264 l 643 1106 l 729 1106 z "},"ő":{"ha":915,"x_min":0,"x_max":0,"o":"m 458 782 b 54 390 242 782 54 606 b 458 -4 54 172 242 -4 b 861 390 674 -4 861 172 b 458 782 861 606 674 782 z m 458 643 b 722 390 600 643 722 529 b 458 135 722 249 600 135 b 193 390 317 135 193 249 b 458 643 193 529 317 643 z m 485 1021 l 357 1021 l 282 863 l 368 863 z m 715 1021 l 588 1021 l 513 863 l 599 863 z "},"Đ":{"ha":1060,"x_min":0,"x_max":0,"o":"m 471 0 b 1000 511 756 0 1000 226 b 471 1021 1000 794 756 1021 l 111 1021 l 111 581 l 21 581 l 21 469 l 111 469 l 111 0 z m 250 581 l 250 886 l 471 886 b 861 511 658 886 861 739 b 471 135 861 321 696 135 l 250 135 l 250 469 l 483 469 l 483 581 z m 297 1468 l 297 1385 l 733 1385 l 733 1468 z "},"đ":{"ha":940,"x_min":0,"x_max":0,"o":"m 424 -4 b 646 78 500 -4 581 31 l 663 0 l 774 0 l 774 839 l 899 839 l 899 931 l 774 931 l 774 1088 l 635 1088 l 635 931 l 311 931 l 311 839 l 635 839 l 635 718 b 424 782 568 757 494 782 b 40 389 204 782 40 606 b 424 -4 40 172 204 -4 z m 424 135 b 179 389 282 135 179 250 b 424 643 179 531 283 643 b 635 579 500 643 564 624 l 635 211 b 424 135 564 163 499 135 z "},"Ł":{"ha":1028,"x_min":0,"x_max":0,"o":"m 306 118 l 306 576 l 496 674 l 496 785 l 306 688 l 306 1021 l 167 1021 l 167 617 l 61 563 l 61 451 l 167 506 l 167 0 l 944 0 l 944 118 z "},"ł":{"ha":556,"x_min":0,"x_max":0,"o":"m 347 1088 l 208 1060 l 208 638 l 61 563 l 61 451 l 208 526 l 208 0 l 347 0 l 347 597 l 496 674 l 496 785 l 347 708 z "},"ﬁ":{"ha":785,"x_min":0,"x_max":0,"o":"m 688 778 l 306 778 l 306 829 b 365 963 306 886 311 963 l 474 963 l 474 1060 l 365 1088 b 167 829 210 1088 167 965 l 167 778 l 28 778 l 28 651 l 167 651 l 167 0 l 306 0 l 306 651 l 549 651 l 549 0 l 688 0 z m 531 974 b 618 894 531 929 569 894 b 707 974 667 894 707 929 b 618 1054 707 1018 667 1054 b 531 974 569 1054 531 1018 z "},"ﬂ":{"ha":771,"x_min":0,"x_max":0,"o":"m 688 0 l 688 1088 l 379 1088 b 167 829 224 1088 167 965 l 167 778 l 28 778 l 28 651 l 167 651 l 167 0 l 306 0 l 306 651 l 474 651 l 474 778 l 306 778 l 306 829 b 379 963 306 886 325 963 l 549 963 l 549 0 z "},"Ө":{"ha":1176,"x_min":0,"x_max":0,"o":"m 588 1025 b 60 511 304 1025 60 794 b 588 -4 60 226 304 -4 b 1117 511 872 -4 1117 226 b 588 1025 1117 794 872 1025 z m 588 135 b 201 463 410 135 228 265 l 974 463 b 588 135 949 290 793 135 z m 588 886 b 969 588 753 886 931 771 l 207 588 b 588 886 244 747 394 886 z "},"ө":{"ha":888,"x_min":0,"x_max":0,"o":"m 444 782 b 40 390 228 782 40 606 b 444 -4 40 172 228 -4 b 847 390 660 -4 847 172 b 444 782 847 606 660 782 z m 444 135 b 185 340 319 135 210 222 l 703 340 b 444 135 679 222 568 135 z m 444 643 b 694 469 558 643 658 569 l 193 469 b 444 643 229 569 331 643 z "},"Ҙ":{"ha":1054,"x_min":0,"x_max":0,"o":"m 394 -301 l 429 -301 b 674 -151 533 -301 674 -271 b 536 -42 674 -75 593 -42 l 553 -3 b 967 307 758 10 967 126 b 792 564 967 428 871 532 b 928 746 849 578 928 654 b 504 1026 928 944 675 1026 b 118 926 382 1026 229 996 l 118 772 l 240 772 l 256 842 b 504 888 329 875 421 888 b 774 746 643 888 774 824 b 490 624 774 639 643 624 l 428 624 l 428 485 l 543 485 b 813 307 699 485 813 431 b 513 135 813 222 699 135 b 142 278 356 135 232 189 l 60 157 b 456 -1 161 67 292 8 l 424 -151 l 489 -151 b 536 -185 507 -151 536 -162 b 410 -246 536 -240 443 -244 z "},"ҙ":{"ha":840,"x_min":0,"x_max":0,"o":"m 293 -301 l 328 -301 b 572 -151 432 -301 572 -271 b 435 -42 572 -75 492 -42 l 451 -4 b 785 240 624 -4 785 103 b 669 407 785 318 722 383 b 756 554 708 429 756 494 b 417 782 756 679 613 782 b 107 700 240 782 111 704 l 107 564 l 208 564 l 226 606 b 417 643 267 622 333 643 b 617 554 540 643 617 590 b 431 471 617 529 617 471 l 308 471 l 308 332 l 424 332 b 646 240 615 332 646 292 b 424 135 646 163 519 135 b 143 228 249 135 143 231 l 56 118 b 356 0 61 113 181 19 l 322 -151 l 388 -151 b 435 -185 406 -151 435 -162 b 308 -246 435 -240 342 -244 z "},"Ғ":{"ha":1014,"x_min":0,"x_max":0,"o":"m 181 1021 l 181 568 l 56 568 l 56 449 l 181 449 l 181 0 l 319 0 l 319 449 l 643 449 l 643 568 l 319 568 l 319 889 l 931 889 l 931 1021 z "},"ғ":{"ha":803,"x_min":0,"x_max":0,"o":"m 42 472 l 42 353 l 167 353 l 167 0 l 306 0 l 306 353 l 629 353 l 629 472 l 306 472 l 306 649 l 733 649 l 733 778 l 167 778 l 167 472 z "},"Ҫ":{"ha":1032,"x_min":0,"x_max":0,"o":"m 458 -301 l 493 -301 b 738 -151 597 -301 738 -271 b 600 -42 738 -75 657 -42 l 617 -3 b 988 176 763 4 894 74 l 889 275 b 588 135 819 192 713 135 b 199 511 396 135 199 288 b 588 888 199 735 396 888 b 796 847 665 888 736 876 l 813 772 l 935 772 l 935 926 b 588 1026 824 996 710 1026 b 60 511 304 1026 60 796 b 521 0 60 249 267 32 l 488 -151 l 553 -151 b 600 -185 571 -151 600 -162 b 474 -246 600 -240 507 -244 z "},"ҫ":{"ha":807,"x_min":0,"x_max":0,"o":"m 315 -301 l 350 -301 b 594 -151 454 -301 594 -271 b 457 -42 594 -75 514 -42 l 474 -3 b 771 118 661 8 764 111 l 683 228 b 438 135 683 231 613 135 b 179 390 296 135 179 235 b 438 643 179 543 296 643 b 606 610 511 643 569 625 l 625 564 l 726 564 l 726 701 b 438 782 722 704 614 782 b 40 390 221 782 40 619 b 378 0 40 179 189 26 l 344 -151 l 410 -151 b 457 -185 428 -151 457 -162 b 331 -246 457 -240 364 -244 z "},"ң":{"ha":914,"x_min":0,"x_max":0,"o":"m 872 -194 l 872 129 l 775 129 l 775 778 l 636 778 l 636 469 l 208 469 l 208 778 l 69 778 l 69 0 l 208 0 l 208 340 l 636 340 l 636 0 l 733 0 l 747 -194 z "},"Һ":{"ha":1028,"x_min":0,"x_max":0,"o":"m 944 0 l 944 383 b 646 682 944 578 842 682 l 222 682 l 222 1021 l 83 1021 l 83 0 l 222 0 l 222 550 l 646 550 b 806 383 760 550 806 499 l 806 0 z "},"һ":{"ha":844,"x_min":0,"x_max":0,"o":"m 486 650 b 636 494 583 650 636 576 l 636 0 l 775 0 l 775 486 b 476 782 775 685 650 782 b 208 664 388 782 294 729 l 208 1088 l 69 1088 l 69 0 l 208 0 l 208 526 b 486 650 303 601 389 650 z "},"Ҡ":{"ha":1228,"x_min":0,"x_max":0,"o":"m 753 643 b 683 594 739 608 706 594 l 403 594 l 403 1021 l 83 1021 l 83 896 l 264 896 l 264 0 l 403 0 l 403 456 l 704 456 b 776 401 726 456 763 436 l 908 121 b 1089 -4 946 40 1014 -4 l 1144 10 l 1144 135 l 1089 135 b 1031 189 1067 135 1046 154 l 925 418 b 821 538 900 474 860 522 b 899 629 853 547 881 589 l 992 833 b 1047 882 1006 864 1026 882 l 1089 882 l 1089 1007 l 1047 1021 b 871 896 972 1021 908 976 z "},"ҡ":{"ha":1032,"x_min":0,"x_max":0,"o":"m 69 649 l 222 649 l 222 0 l 361 0 l 361 340 l 596 340 b 651 286 619 340 636 318 l 728 121 b 908 -4 765 40 832 -4 l 963 10 l 963 135 l 908 135 b 850 189 886 135 865 154 l 774 354 b 722 406 764 374 735 401 b 776 463 736 413 768 440 l 824 585 b 882 639 838 619 860 639 l 936 639 l 936 764 l 882 778 b 701 653 807 778 738 733 l 654 531 b 599 469 642 497 618 469 l 361 469 l 361 778 l 69 778 z "},"Ә":{"ha":1144,"x_min":0,"x_max":0,"o":"m 65 588 l 54 525 b 564 -4 54 178 313 -4 b 1092 511 847 -4 1092 226 b 564 1026 1092 796 847 1026 b 217 926 442 1026 328 996 l 217 772 l 339 772 l 356 847 b 564 888 414 876 485 888 b 944 588 732 888 906 768 z m 949 463 b 564 135 924 265 742 135 b 207 463 386 135 207 282 z "},"ә":{"ha":876,"x_min":0,"x_max":0,"o":"m 42 390 b 439 -4 42 158 222 -4 b 836 390 656 -4 836 158 b 439 782 836 619 656 782 b 150 701 263 782 154 704 l 150 564 l 251 564 l 271 610 b 439 643 307 625 363 643 b 685 469 554 643 653 576 l 42 469 z m 439 135 b 185 340 314 135 207 214 l 693 340 b 439 135 671 214 564 135 z "},"Ү":{"ha":953,"x_min":0,"x_max":0,"o":"m 546 532 l 407 532 l 172 1021 l 33 1021 l 335 393 l 407 393 l 407 0 l 546 0 l 546 393 l 618 393 l 919 1021 l 781 1021 z "},"ү":{"ha":826,"x_min":0,"x_max":0,"o":"m 278 0 l 343 0 l 343 -301 l 482 -301 l 482 0 l 549 0 l 781 778 l 642 778 l 450 139 l 376 139 l 185 778 l 46 778 z "},"Җ":{"ha":1622,"x_min":0,"x_max":0,"o":"m 1539 -208 l 1539 135 l 1428 135 b 1369 189 1406 135 1385 154 l 1264 418 b 1160 538 1239 474 1199 522 b 1238 629 1192 547 1219 589 l 1331 833 b 1386 882 1344 864 1365 882 l 1428 882 l 1428 1007 l 1386 1021 b 1210 896 1311 1021 1247 976 l 1092 643 b 1022 594 1078 608 1044 594 l 853 594 l 853 1021 l 714 1021 l 714 594 l 544 594 b 475 643 522 594 489 608 l 357 896 b 181 1021 319 976 256 1021 l 139 1007 l 139 882 l 181 882 b 236 833 201 882 222 864 l 329 629 b 407 538 347 589 375 547 b 303 418 368 522 328 474 l 197 189 b 139 135 181 154 161 135 l 83 135 l 83 10 l 139 -4 b 319 121 214 -4 282 40 l 451 401 b 524 456 465 436 501 456 l 714 456 l 714 0 l 853 0 l 853 456 l 1043 456 b 1115 401 1065 456 1101 436 l 1247 121 b 1400 -1 1281 50 1336 7 l 1414 -208 z "},"җ":{"ha":1425,"x_min":0,"x_max":0,"o":"m 1356 -194 l 1356 135 l 1246 135 b 1188 189 1224 135 1203 154 l 1111 354 b 1060 406 1101 374 1072 401 b 1114 463 1072 413 1106 440 l 1161 585 b 1219 639 1175 619 1197 639 l 1274 639 l 1274 764 l 1219 778 b 1039 653 1144 778 1075 733 l 992 531 b 936 469 979 497 956 472 l 754 469 l 754 778 l 615 778 l 615 469 l 433 469 b 378 531 413 472 390 497 l 331 653 b 150 778 294 733 225 778 l 96 764 l 96 639 l 150 639 b 208 585 172 639 194 619 l 256 463 b 310 406 264 440 296 413 b 258 354 297 401 267 374 l 182 189 b 124 135 165 154 146 135 l 69 135 l 69 10 l 124 -4 b 304 121 199 -4 267 40 l 381 286 b 436 340 394 318 408 338 l 615 340 l 615 0 l 754 0 l 754 340 l 933 340 b 989 286 956 338 974 318 l 1065 121 b 1217 -1 1097 50 1147 7 l 1231 -194 z "},"Ҳ":{"ha":1026,"x_min":0,"x_max":0,"o":"m 972 -208 l 972 125 l 844 125 l 622 539 l 883 1021 l 744 1021 l 510 588 l 447 588 l 214 1021 l 75 1021 l 335 539 l 47 0 l 186 0 l 433 463 l 525 463 l 772 0 l 833 0 l 847 -208 z "},"ҳ":{"ha":863,"x_min":0,"x_max":0,"o":"m 660 0 l 692 0 l 706 -194 l 831 -194 l 831 129 l 738 129 l 571 443 l 775 778 l 628 778 l 450 497 l 376 497 l 200 778 l 53 778 l 257 443 l 21 0 l 168 0 l 372 372 l 454 372 z "},"Ĺ":{"ha":944,"x_min":0,"x_max":0,"o":"m 222 118 l 222 1021 l 83 1021 l 83 0 l 861 0 l 861 118 z m 581 1250 l 453 1250 l 364 1092 l 454 1092 z "},"Ď":{"ha":1032,"x_min":0,"x_max":0,"o":"m 443 0 b 972 511 728 0 972 226 b 443 1021 972 794 728 1021 l 83 1021 l 83 0 z m 222 135 l 222 886 l 443 886 b 833 511 631 886 833 739 b 443 135 833 321 668 135 z m 353 1106 l 456 1106 l 581 1264 l 482 1264 l 419 1185 l 389 1185 l 326 1264 l 228 1264 z "},"ĺ":{"ha":278,"x_min":0,"x_max":0,"o":"m 208 1088 l 69 1060 l 69 0 l 208 0 z m 303 1264 l 175 1264 l 86 1106 l 176 1106 z "},"ľ":{"ha":525,"x_min":0,"x_max":0,"o":"m 456 1090 l 342 1090 l 308 863 l 371 863 z m 208 1088 l 69 1060 l 69 0 l 208 0 z "},"Ľ":{"ha":944,"x_min":0,"x_max":0,"o":"m 511 1021 l 383 1021 l 350 724 l 413 724 z m 222 118 l 222 1021 l 83 1021 l 83 0 l 861 0 l 861 118 z "},"ď":{"ha":1063,"x_min":0,"x_max":0,"o":"m 424 -4 b 646 78 500 -4 581 31 l 663 0 l 774 0 l 774 1088 l 635 1088 l 635 718 b 424 782 568 757 494 782 b 40 389 204 782 40 606 b 424 -4 40 172 204 -4 z m 424 135 b 179 389 282 135 179 250 b 424 643 179 531 283 643 b 635 579 500 643 564 624 l 635 211 b 424 135 564 163 499 135 z m 1021 1090 l 907 1090 l 874 863 l 936 863 z "},"Ş":{"ha":1022,"x_min":0,"x_max":0,"o":"m 371 -301 l 406 -301 b 650 -151 510 -301 650 -271 b 513 -42 650 -75 569 -42 l 529 -3 b 953 307 738 7 953 124 b 522 613 953 553 733 613 b 239 746 369 613 239 639 b 508 888 239 824 369 888 b 756 842 590 888 683 875 l 772 758 l 894 758 l 894 926 b 508 1026 783 996 631 1026 b 85 746 338 1026 85 944 b 529 469 85 515 324 469 b 799 307 685 469 799 431 b 499 135 799 222 685 135 b 128 278 342 135 218 189 l 46 157 b 432 -1 146 68 272 11 l 400 -151 l 465 -151 b 513 -185 483 -151 513 -162 b 386 -246 513 -240 419 -244 z "},"ş":{"ha":846,"x_min":0,"x_max":0,"o":"m 283 -301 l 318 -301 b 563 -151 422 -301 563 -271 b 425 -42 563 -75 482 -42 l 440 -4 b 785 240 639 1 785 97 b 424 469 785 401 628 469 b 224 557 265 469 224 508 b 424 646 224 611 314 646 b 608 610 504 646 567 626 l 626 564 l 733 564 l 733 701 b 424 782 729 704 600 782 b 85 557 228 782 85 682 b 424 333 85 415 193 333 b 646 240 615 333 646 292 b 424 132 646 163 519 132 b 143 228 249 132 143 231 l 56 118 b 354 0 61 113 181 21 l 346 0 l 313 -151 l 378 -151 b 425 -185 396 -151 425 -162 b 299 -246 425 -240 332 -244 z "},"ť":{"ha":688,"x_min":0,"x_max":0,"o":"m 646 1090 l 532 1090 l 499 863 l 561 863 z m 488 10 l 488 128 l 389 128 b 306 250 344 128 306 167 l 306 653 l 488 653 l 488 778 l 306 778 l 306 976 l 208 976 l 181 778 l 42 778 l 42 653 l 167 653 l 167 250 b 389 -4 167 103 225 -4 z "},"Ţ":{"ha":1000,"x_min":0,"x_max":0,"o":"m 389 -301 l 424 -301 b 668 -151 528 -301 668 -271 b 531 -42 668 -75 588 -42 l 549 0 l 569 0 l 569 896 l 931 896 l 931 1021 l 69 1021 l 69 896 l 431 896 l 431 0 l 451 0 l 418 -151 l 483 -151 b 531 -185 501 -151 531 -162 b 404 -246 531 -240 438 -244 z "},"ţ":{"ha":571,"x_min":0,"x_max":0,"o":"m 488 10 l 488 128 l 389 128 b 306 250 344 128 306 167 l 306 653 l 488 653 l 488 778 l 306 778 l 306 976 l 208 976 l 181 778 l 42 778 l 42 653 l 167 653 l 167 250 b 278 18 167 142 197 57 l 238 -151 l 303 -151 b 350 -185 321 -151 350 -162 b 224 -246 350 -240 257 -244 l 208 -301 l 243 -301 b 488 -151 347 -301 488 -271 b 350 -42 488 -75 407 -42 l 367 -3 b 389 -4 374 -4 381 -4 z "},"":{"ha":875,"x_min":0,"x_max":0,"o":"m 69 389 b 438 -4 69 186 235 -4 b 806 389 640 -4 806 186 b 438 782 806 592 640 782 b 69 389 235 782 69 592 z m 211 389 b 438 643 211 519 311 643 b 664 389 564 643 664 519 b 438 135 664 258 564 135 b 211 389 311 135 211 258 z "},"":{"ha":853,"x_min":0,"x_max":0,"o":"m 494 778 l 399 778 l 69 450 l 168 351 l 356 539 l 356 139 l 69 139 l 69 0 l 783 0 l 783 139 l 494 139 z "},"":{"ha":853,"x_min":0,"x_max":0,"o":"m 631 492 b 69 97 631 326 179 151 l 69 0 l 783 0 l 783 139 l 461 139 b 769 492 617 225 769 343 b 435 782 769 649 671 782 b 97 467 242 782 97 636 l 236 467 b 435 643 236 565 317 643 b 631 492 600 643 631 553 z "},"":{"ha":851,"x_min":0,"x_max":0,"o":"m 376 186 l 557 186 b 643 31 606 153 643 101 b 418 -167 643 -100 519 -167 b 208 0 325 -167 224 -111 l 69 0 b 418 -306 83 -178 224 -306 b 782 31 624 -306 782 -162 b 653 271 782 126 725 211 b 756 492 722 335 756 408 b 435 782 756 649 671 782 b 97 467 242 782 97 636 l 236 467 b 435 643 236 565 317 643 b 617 492 600 643 617 553 b 519 325 617 435 583 357 l 376 325 z "},"":{"ha":876,"x_min":0,"x_max":0,"o":"m 243 139 l 608 778 l 449 778 l 69 139 l 69 0 l 599 0 l 599 -301 l 738 -301 l 738 0 l 807 0 l 807 139 l 738 139 l 738 432 l 599 432 l 599 139 z "},"":{"ha":851,"x_min":0,"x_max":0,"o":"m 69 0 b 418 -306 83 -178 224 -306 b 782 44 624 -306 782 -149 b 432 394 782 238 638 394 b 246 346 347 394 297 368 l 275 639 l 728 639 l 728 778 l 147 778 l 90 193 l 224 165 b 432 256 279 218 319 256 b 643 44 533 256 643 175 b 418 -167 643 -86 519 -167 b 208 0 325 -167 224 -111 z "},"":{"ha":875,"x_min":0,"x_max":0,"o":"m 774 785 b 457 1025 746 907 631 1025 b 69 510 194 1025 69 772 b 438 -4 69 219 175 -4 b 806 357 700 -4 806 192 b 438 706 806 522 700 706 b 211 568 342 706 247 633 b 457 886 224 736 294 886 b 628 785 556 886 608 832 z m 438 135 b 213 385 278 135 226 276 b 438 567 228 440 304 567 b 667 357 635 567 667 415 b 438 135 667 299 635 135 z "},"":{"ha":879,"x_min":0,"x_max":0,"o":"m 808 694 l 808 778 l 71 778 l 71 639 l 642 639 l 281 -301 l 433 -301 z "},"":{"ha":875,"x_min":0,"x_max":0,"o":"m 139 754 b 204 582 139 681 164 624 b 69 329 121 531 69 446 b 438 -4 69 122 231 -4 b 806 329 644 -4 806 122 b 672 579 806 446 754 529 b 736 754 713 624 736 682 b 438 1025 736 922 606 1025 b 139 754 269 1025 139 922 z m 367 504 b 438 499 389 500 413 499 b 667 329 579 499 667 429 b 438 135 667 229 579 135 b 208 329 296 135 208 229 b 367 504 208 410 267 482 z m 597 754 b 519 632 597 701 567 651 b 278 754 394 644 278 633 b 438 886 278 836 347 886 b 597 754 528 886 597 836 z "},"":{"ha":875,"x_min":0,"x_max":0,"o":"m 101 -65 b 418 -306 129 -187 244 -306 b 806 240 681 -306 806 -36 b 438 782 806 558 700 782 b 69 407 175 782 69 572 b 438 44 69 242 175 44 b 664 182 533 44 628 117 b 418 -167 651 14 581 -167 b 247 -65 319 -167 267 -112 z m 438 643 b 663 379 597 643 649 488 b 438 183 647 324 571 183 b 208 407 240 183 208 349 b 438 643 208 465 240 643 z "},"−":{"ha":629,"x_min":0,"x_max":0,"o":"m 546 417 l 546 528 l 83 528 l 83 417 z "},"Қ":{"ha":1131,"x_min":0,"x_max":0,"o":"m 1047 -208 l 1047 125 l 908 125 b 850 189 886 125 865 154 l 721 469 b 658 538 708 497 678 526 b 693 575 669 543 685 558 l 808 828 b 867 882 824 863 844 882 l 908 882 l 908 1007 l 867 1021 b 686 896 792 1021 724 976 l 568 643 b 499 588 554 608 526 588 l 222 588 l 222 1021 l 83 1021 l 83 0 l 222 0 l 222 463 l 524 463 b 596 401 556 463 582 436 l 728 121 b 908 -4 765 40 833 -4 l 922 -208 z "},"ұ":{"ha":826,"x_min":0,"x_max":0,"o":"m 343 0 l 343 -301 l 482 -301 l 482 0 l 707 0 l 707 92 l 575 92 l 781 778 l 642 778 l 436 92 l 390 92 l 185 778 l 46 778 l 250 92 l 119 92 l 119 0 z "},"Ұ":{"ha":1117,"x_min":0,"x_max":0,"o":"m 632 532 l 485 532 l 213 1021 l 74 1021 l 417 393 l 489 393 l 489 276 l 238 276 l 238 185 l 489 185 l 489 0 l 628 0 l 628 185 l 881 185 l 881 276 l 628 276 l 628 393 l 700 393 l 1043 1021 l 904 1021 z "},"қ":{"ha":935,"x_min":0,"x_max":0,"o":"m 763 129 b 697 189 740 129 713 154 l 621 354 b 569 406 611 374 582 401 b 624 463 582 413 615 440 l 671 585 b 729 639 685 619 707 639 l 783 639 l 783 764 l 729 778 b 549 653 654 778 585 733 l 501 531 b 446 469 489 497 465 472 l 208 469 l 208 778 l 69 778 l 69 0 l 208 0 l 208 340 l 443 340 b 499 286 465 338 483 318 l 575 121 b 726 -1 607 50 663 7 l 740 -194 l 865 -194 l 865 129 l 763 129 z "},"Ҹ":{"ha":1019,"x_min":0,"x_max":0,"o":"m 485 444 l 438 444 b 222 667 324 444 222 551 l 222 1021 l 83 1021 l 83 667 b 438 313 83 472 242 313 l 485 313 l 485 89 l 576 89 l 576 313 l 797 313 l 797 0 l 936 0 l 936 1021 l 797 1021 l 797 444 l 576 444 l 576 676 l 485 676 z "},"ҹ":{"ha":831,"x_min":0,"x_max":0,"o":"m 761 0 l 761 778 l 622 778 l 622 406 l 465 406 l 465 631 l 374 631 l 374 406 l 319 406 b 208 521 257 406 208 458 l 208 778 l 69 778 l 69 521 b 319 271 69 385 179 271 l 374 271 l 374 43 l 465 43 l 465 271 l 622 271 l 622 0 z "},"ҝ":{"ha":879,"x_min":0,"x_max":0,"o":"m 304 469 l 208 469 l 208 778 l 69 778 l 69 0 l 208 0 l 208 340 l 304 340 l 304 99 l 396 99 l 396 340 l 443 340 b 499 286 465 338 483 318 l 575 121 b 756 -4 613 40 679 -4 l 810 10 l 810 135 l 756 135 b 697 189 733 135 713 154 l 621 354 b 569 406 611 374 582 401 b 624 463 582 413 615 440 l 671 585 b 729 639 685 619 707 639 l 783 639 l 783 764 l 729 778 b 549 653 654 778 585 733 l 501 531 b 446 469 489 497 465 472 l 396 469 l 396 686 l 304 686 z "},"Ҝ":{"ha":1047,"x_min":0,"x_max":0,"o":"m 357 588 l 222 588 l 222 1021 l 83 1021 l 83 0 l 222 0 l 222 463 l 357 463 l 357 228 l 449 228 l 449 463 l 524 463 b 596 401 556 463 582 436 l 728 121 b 908 -4 765 40 833 -4 l 964 10 l 964 135 l 908 135 b 850 189 886 135 865 154 l 721 469 b 658 538 708 497 678 526 b 693 575 669 543 685 558 l 808 828 b 867 882 824 863 844 882 l 908 882 l 908 1007 l 867 1021 b 686 896 792 1021 724 976 l 568 643 b 499 588 554 608 526 588 l 449 588 l 449 815 l 357 815 z "},"ѳ":{"ha":888,"x_min":0,"x_max":0,"o":"m 444 782 b 40 390 228 782 40 606 b 444 -4 40 172 228 -4 b 847 390 660 -4 847 172 b 444 782 847 606 660 782 z m 444 646 b 706 440 568 646 679 556 b 607 363 704 410 664 363 b 508 393 576 363 547 369 b 300 492 450 429 392 492 b 190 447 254 492 218 474 l 185 450 b 444 646 214 561 324 646 z m 288 382 b 378 342 318 382 338 365 b 594 253 438 307 503 253 b 668 269 622 253 647 258 l 675 265 b 444 132 629 186 540 132 b 193 303 333 132 232 203 b 288 382 194 333 229 382 z "},"Ѳ":{"ha":1204,"x_min":0,"x_max":0,"o":"m 601 1025 b 74 511 318 1025 74 794 b 601 -4 74 226 318 -4 b 1131 511 886 -4 1131 226 b 601 1025 1131 794 886 1025 z m 601 135 b 217 449 428 135 250 260 b 372 554 236 503 297 554 b 560 463 401 554 456 544 b 831 343 685 364 753 343 b 967 383 882 343 928 358 b 601 135 913 246 775 135 z m 647 556 b 372 679 517 658 450 679 b 238 640 321 679 276 664 b 601 886 293 776 431 886 b 986 576 769 886 951 767 b 831 468 968 522 907 468 b 647 556 801 468 747 478 z "}}}
